<?xml version="1.0" encoding="UTF-8" standalone="no"?>
<!-- Created with Inkscape (http://www.inkscape.org/) -->

<svg
   xmlns:dc="http://purl.org/dc/elements/1.1/"
   xmlns:cc="http://creativecommons.org/ns#"
   xmlns:rdf="http://www.w3.org/1999/02/22-rdf-syntax-ns#"
   xmlns:svg="http://www.w3.org/2000/svg"
   xmlns="http://www.w3.org/2000/svg"
   xmlns:sodipodi="http://sodipodi.sourceforge.net/DTD/sodipodi-0.dtd"
   xmlns:inkscape="http://www.inkscape.org/namespaces/inkscape"
   width="198.4375mm"
   height="198.4375mm"
   viewBox="0 0 198.4375 198.4375"
   version="1.1"
   id="svg5"
   sodipodi:docname="Kyser Stamp.svg"
   inkscape:export-filename="C:\Users\ckyse\Kyser Stamp.png"
   inkscape:export-xdpi="96"
   inkscape:export-ydpi="96"
   inkscape:version="0.92.4 (5da689c313, 2019-01-14)">
  <metadata
     id="metadata23">
    <rdf:RDF>
      <cc:Work
         rdf:about="">
        <dc:format>image/svg+xml</dc:format>
        <dc:type
           rdf:resource="http://purl.org/dc/dcmitype/StillImage" />
        <dc:title></dc:title>
      </cc:Work>
    </rdf:RDF>
  </metadata>
  <sodipodi:namedview
     id="namedview7"
     pagecolor="#000000"
     bordercolor="#666666"
     borderopacity="1.0"
     inkscape:pageshadow="2"
     inkscape:pageopacity="0"
     inkscape:pagecheckerboard="0"
     inkscape:document-units="mm"
     showgrid="true"
     showguides="false"
     inkscape:snap-bbox="false"
     inkscape:snap-page="false"
     inkscape:snap-grids="false"
     inkscape:zoom="1"
     inkscape:cx="484.11872"
     inkscape:cy="271.18383"
     inkscape:window-width="1920"
     inkscape:window-height="1001"
     inkscape:window-x="-9"
     inkscape:window-y="-9"
     inkscape:window-maximized="1"
     inkscape:current-layer="layer1"
     inkscape:snap-to-guides="false"
     inkscape:object-nodes="false"
     inkscape:snap-others="false"
     inkscape:snap-nodes="false"
     inkscape:snap-global="false">
    <inkscape:grid
       type="xygrid"
       id="grid51"
       originx="-5.2916565"
       originy="-5.2916565" />
  </sodipodi:namedview>
  <defs
     id="defs2">
    <rect
       x="195.16147"
       y="145.664"
       width="325.97622"
       height="246.07316"
       id="rect22447" />
    <rect
       x="369.10974"
       y="243.95184"
       width="33.941125"
       height="47.376154"
       id="rect16751" />
    <rect
       x="304.05591"
       y="197.9899"
       width="65.053824"
       height="43.133513"
       id="rect13093" />
  </defs>
  <g
     inkscape:label="Layer 1"
     inkscape:groupmode="layer"
     id="layer1"
     transform="translate(-5.2916565,-5.2916565)"
     style="display:none" />
  <g
     inkscape:groupmode="layer"
     id="layer3"
     inkscape:label="k"
     style="display:none">
    <g
       id="g26943"
       inkscape:label="Logo"
       style="display:inline;fill:#ffffff"
       transform="translate(-5.4285838,-5.3083325)">
      <ellipse
         style="display:inline;fill:#ffffff;fill-opacity:0;stroke:#000000;stroke-width:7.296;stroke-miterlimit:4;stroke-dasharray:none;stroke-opacity:1"
         id="path1554"
         cx="103.78735"
         cy="103.79238"
         rx="94.062798"
         ry="94.067833" />
      <path
         style="display:inline;fill:#ffffff;fill-opacity:1;stroke:#000000;stroke-width:42.69350052;stroke-miterlimit:4;stroke-dasharray:none;stroke-opacity:0"
         d="M 349.5,705.34505 C 282.0488,700.8431 216.42063,675.05927 162.5,631.8769 148.38176,620.5703 123.91404,596.10031 112.62772,582 64.390374,521.73574 38.917163,449.85554 38.738602,373.5 c -0.05249,-22.44508 1.027253,-36.34152 4.3888,-56.48453 C 56.147785,238.99493 96.835027,168.01352 158.00326,116.60744 178.61557,99.284751 200.9967,84.719945 224.6036,73.036408 248.2105,61.35287 276.86343,52.592403 302.4477,47.106542 372.13574,32.163807 356.91671,84.306123 376.61013,84.989774 398.16552,85.738062 384.64781,32.514141 451.96447,46.88895 577.30675,73.65456 675.40696,182.667 699.91956,308.5 c 7.42793,38.13055 7.57068,80.65296 1.5107,118.96355 C 678.67672,571.30909 555.34079,695.34161 403.4536,705.033 c -15.55871,0.99275 -16.51324,-20.10882 -28.18982,-19.96512 -11.55201,0.14217 -13.32923,21.1071 -25.76378,20.27717 z M 261.96499,583.06532 C 312.59209,568.93484 349.16062,524.913 368.34763,455 c 8.27153,-30.13951 10.65985,-60.25099 23.66288,-126 5.45698,-27.59289 -31.39702,-11.04818 -8.52175,-55.20111 3.45243,-6.66374 42.42887,-77.46506 56.86235,-100.29889 9.27188,-14.66817 9.0893,-14.12803 9.0893,-14.12803 -5.22688,-4.68254 -10.19489,-1.29934 -21.01116,2.39241 -11.15146,3.80616 -20.03574,7.24956 -32.79628,7.56855 -8.26589,0.20664 -14.76304,-1.07582 -32.93042,-8.45153 -21.97376,-8.92106 -28.94977,-10.73105 -41.20255,-10.69042 -21.72634,0.072 -41.84664,9.22923 -60.81356,27.67758 -30.98712,30.13988 -48.02053,69.31641 -46.36187,106.63144 0.587,13.20594 2.91241,22.52586 8.31391,33.321 8.75449,17.49626 24.31508,27.58755 27.41574,15.85302 5.76571,-21.82049 37.56466,-13.48496 25.54124,-23.94934 0,0 -16.16997,2.14154 -26.7893,-4.22705 -10.60154,-6.35792 -16.02031,-15.26187 -15.499,-40.08974 0.59567,-28.36939 8.93332,-41.09499 20.60806,-55.413 11.31462,-13.87636 24.65253,-12.77172 33.84901,-12.81558 7.04193,-0.0336 12.74893,1.67457 37.47308,11.21599 14.76617,5.69849 24.5081,9.76607 35.13769,8.99545 9.25083,-0.67067 16.22598,-2.84108 26.08731,-6.8481 3.43714,-1.39663 9.35601,-1.42758 9.48639,-1.29099 0,0 -16.08842,23.23086 -22.00834,31.7137 -31.72797,45.46396 -36.79681,47.10008 -46.64452,69.48503 -10.54543,23.97095 -1.82359,69.90206 -1.86392,94.24631 -0.12834,77.46743 -4.22388,105.40206 -34.09254,134.47777 -21.29063,20.72541 -56.13622,22.32505 -70.70742,20.61097 -19.98511,-2.35094 -46.28267,-13.55687 -50.55838,-38.22249 -3.05396,-17.61761 46.06022,-23.20723 42.41367,-26.85379 -2.61914,-2.61914 -22.09609,-18.40512 -26.36632,-17.9948 -6.23307,0.59892 -12.03808,4.56165 -23.74393,16.20857 -10.12326,10.07229 -14.10705,27.51641 -31.8999,25.72256 l 16.98587,18.68788 c 14.6934,16.16569 39.27523,44.09804 67.03703,48.5089 1.65,0.26215 11.6875,1.90148 21.3125,1.73323 15.2803,-0.26712 17.88804,-2.2035 26.15249,-4.51018 z m 237.57107,1.42546 c 10.59223,-2.70904 22.49364,-8.83914 32.59697,-16.21195 32.13051,-23.44695 38.927,-52.94946 57.13543,-53.95801 l 2.10654,-0.11668 1.5934,-2.50832 -14.57234,-29.09963 -15.02843,0.16778 c 0,0 -4.18805,4.12852 2.61056,9.69957 25.94123,21.25728 -34.11449,64.83213 -59.13687,47.76722 -4.19334,-2.8598 -10.05873,-7.60942 -12.34962,-14.1882 -1.66146,-4.77122 -3.23509,-10.97108 -2.81061,-28.24487 0.26355,-10.725 2.73781,-31.0231 2.68955,-42.2981 -0.0804,-18.78687 -0.99044,-33.62185 -2.6266,-42.88382 -2.18142,-12.34853 -3.402,-18.19547 -16.56078,-30.68555 -4.05612,-3.85 -8.57797,-6.80207 -17.2273,-11.3943 l -7.21162,-3.8289 1.5888,-1.18178 c 0,0 9.407,-0.84896 21.53542,-23.32342 7.63254,-14.1434 12.74992,-30.67802 22.18213,-69.20223 6.57415,-26.85097 9.88893,-36.68922 15.51686,-46.05404 4.49606,-7.48139 14.9,-32.50286 40.66863,-35.58922 35.57285,-4.26063 24.39886,42.53629 6.45149,32.40131 -8.23389,-4.64972 -0.73832,12.09335 -0.73832,12.09335 23.99517,-9.27738 29.24645,-32.94567 23.05065,-53.30504 -4.45962,-14.6543 -10.00911,-23.43882 -21.04396,-29.06838 -6.13327,-3.12896 -15.32911,-3.7148 -23.5177,-1.49825 -17.02765,4.60917 -33.02147,22.07534 -44.54628,48.64711 -8.31074,19.16138 -14.81168,40.96775 -22.91764,76.87357 -5.66803,25.10688 -10.15033,39.60603 -15.92084,51.5 -5.47491,11.28468 -11.07887,18.25448 -17.90248,22.2658 -4.3245,2.5422 -5.64724,2.76931 -18.83691,3.2342 -14.05748,0.49548 -14.01595,0.57737 -14.01595,0.57737 -1.13118,8.57531 -3.37616,21.88365 -3.74647,27.79172 0,0 6.23479,0.54681 9.74489,1.73037 l 4.4589,1.50349 5.93977,3.15067 c 17.24985,9.14994 8.20278,30.62241 3.43836,77.73094 -3.49085,34.51602 -3.80919,45.80674 -1.66394,59.01544 4.82282,29.69489 22.52042,52.65424 45.53025,59.06703 7.3286,2.04246 24.44709,1.74831 33.53606,-0.57625 z"
         id="path38638"
         sodipodi:nodetypes="ssssssssssssssssssssssssssssssssssssssssssssssscssssssscccssssssssscsssssssssssssssssscsssss"
         transform="matrix(0.26458333,0,0,0.26458333,5.2916565,5.2916565)"
         inkscape:connector-curvature="0" />
    </g>
  </g>
  <g
     inkscape:groupmode="layer"
     id="layer2"
     inkscape:label="Output"
     style="display:inline">
    <path
       style="opacity:1;fill:#ffffff;fill-opacity:1;stroke:none;stroke-width:4.71701431;stroke-miterlimit:4;stroke-dasharray:none;stroke-opacity:1"
       d="m 464.00347,583.99054 c -8.64534,-2.82003 -15.1667,-6.92737 -22.16864,-13.96246 -13.86044,-13.92606 -21.584,-33.34048 -22.51762,-56.60168 -0.60201,-14.99922 1.74786,-43.07474 6.20448,-74.12912 2.73803,-19.07897 3.43306,-34.14744 1.82804,-39.63255 -0.62034,-2.11998 -2.10771,-5.037 -3.30528,-6.48226 -3.07377,-3.70954 -13.23598,-8.67746 -20.11457,-9.83327 -4.62008,-0.77631 -5.33359,-1.09067 -5.33237,-2.34934 0.002,-1.67201 3.44085,-25.31146 3.70955,-25.49754 0.098,-0.0678 6.38299,-0.44105 13.96671,-0.82934 12.92158,-0.66161 14.02781,-0.82807 17.5933,-2.64732 13.19301,-6.73158 23.40985,-26.79589 32.25411,-63.34212 1.83527,-7.58372 5.04906,-20.84307 7.14174,-29.46522 11.55305,-47.60032 23.92359,-75.78228 40.78411,-92.91239 21.94871,-22.29965 49.48568,-20.06278 61.52651,4.99789 5.11282,10.64134 6.50131,16.4115 6.46584,26.87006 -0.0249,7.34282 -0.30347,9.61676 -1.6459,13.43502 -2.16912,6.16961 -7.2364,13.62493 -11.61098,17.08283 -4.10568,3.24536 -10.14286,6.48189 -11.04771,5.92267 -0.91218,-0.56377 -2.8681,-6.69408 -2.8681,-8.98932 0,-2.28728 0.56452,-2.39387 4.82304,-0.91064 7.52416,2.62063 14.39467,-3.65504 15.47646,-14.13651 0.62629,-6.06821 -0.87033,-10.71989 -4.67217,-14.52174 -3.92272,-3.92272 -8.12431,-5.34843 -15.27377,-5.18279 -16.6391,0.38549 -29.47334,9.52041 -40.73902,28.99649 -9.46888,16.36978 -11.11387,20.93232 -19.75423,54.79027 -7.01719,27.49744 -10.09465,38.37219 -13.8737,49.02517 -7.16666,20.20246 -18.27329,36.66934 -27.4796,40.74173 -1.73735,0.76852 -3.15881,1.67484 -3.15881,2.01405 0,0.33921 2.78423,2.11949 6.18719,3.95616 9.78858,5.28319 14.97433,9.00407 20.82077,14.93933 6.03623,6.12794 9.89402,12.00517 11.46603,17.46816 4.71835,16.39701 5.77196,47.31124 2.87045,84.22223 -1.40838,17.91642 -0.85116,29.61442 1.81786,38.16361 1.35333,4.33485 2.14823,5.53496 6.58874,9.94735 5.75966,5.72319 9.80362,7.93365 16.15932,8.8328 18.12853,2.56468 44.61147,-11.9932 53.27346,-29.28483 2.02648,-4.04539 2.43854,-5.64038 2.43854,-9.43907 0,-5.4799 -1.33482,-8.64084 -5.1326,-12.15436 -3.44734,-3.1893 -5.00575,-6.07821 -4.4574,-8.26298 0.41481,-1.65275 0.59906,-1.69161 8.02091,-1.69161 h 7.59634 l 6.88587,13.79326 c 3.78723,7.5863 6.88587,14.27634 6.88587,14.86675 0,1.15868 -2.70445,2.45269 -5.12608,2.45269 -2.19506,0 -6.92459,2.46662 -10.34775,5.39672 -1.64594,1.40886 -7.49867,8.32814 -13.00607,15.3762 -16.17852,20.70433 -28.76585,32.18109 -44.87992,40.92024 -14.07759,7.6347 -22.46429,9.7406 -38.60203,9.69299 -9.19265,-0.0272 -11.42686,-0.26183 -15.67092,-1.64621 z"
       id="path4540"
       inkscape:connector-curvature="0"
       transform="scale(0.26458333)" />
    <path
       style="display:inline;opacity:1;fill:#ffffff;fill-opacity:1;stroke:none;stroke-width:4.71701431;stroke-miterlimit:4;stroke-dasharray:none;stroke-opacity:1"
       d="m 220.05164,586.31961 c -15.40875,-1.81536 -29.31101,-8.37456 -44.19417,-20.85118 -6.84386,-5.73723 -20.44376,-19.51983 -33.78693,-34.24084 l -10.56942,-11.66083 4.06312,-0.82881 c 7.73609,-1.57802 10.84259,-4.15904 19.09902,-15.86828 8.18193,-11.6036 20.82154,-22.93662 27.98564,-25.0927 3.01824,-0.90836 3.42946,-0.86387 6.52344,0.70574 5.88778,2.98691 22.04047,15.17784 22.04047,16.63462 0,0.64856 -2.64607,1.64331 -15.2028,5.71527 -22.14069,7.17989 -28.85114,13.23634 -26.15111,23.60244 1.88963,7.2548 4.55497,11.74321 10.57511,17.80845 8.48813,8.55171 20.05527,14.3203 33.96078,16.93639 9.45826,1.77942 29.70104,1.11383 39.95153,-1.31362 18.22406,-4.31569 29.21619,-10.44499 40.93129,-22.82361 16.29571,-17.21866 23.7086,-34.60015 27.26312,-63.92556 2.72347,-22.46908 3.36737,-66.53154 1.31383,-89.90501 -1.67537,-19.06904 -1.72085,-52.70384 -0.0808,-59.74969 2.95919,-12.71299 9.00911,-23.92363 23.60413,-43.739 18.23464,-24.75681 48.38977,-67.54007 48.38977,-68.65406 0,-1.15661 -8.14353,0.52242 -16.97056,3.499 -20.01092,6.74793 -24.84138,6.29119 -55.63092,-5.26009 -27.21078,-10.20863 -29.77189,-10.84598 -41.59111,-10.35031 -15.9119,0.66731 -21.91792,3.94506 -32.46811,17.71927 -8.18338,10.68413 -13.06176,21.61466 -15.35672,34.40836 -1.44222,8.03994 -1.28311,31.65306 0.25098,37.24841 1.87344,6.83305 4.07295,10.89506 7.97278,14.72394 6.36314,6.24738 13.76324,8.88668 25.66866,9.15493 5.5399,0.12483 7.55417,0.43239 8.4052,1.28342 2.00718,2.00718 0.48395,3.13552 -7.72172,5.71988 -11.56166,3.64133 -15.79616,7.10627 -18.92747,15.48769 -0.84579,2.26388 -2.16743,4.41519 -2.9794,4.84975 -6.97013,3.7303 -21.11307,-10.77919 -27.37478,-28.08426 -3.7522,-10.36971 -4.63959,-16.22638 -4.59576,-30.33172 0.0656,-21.09564 4.30411,-38.15354 14.55189,-58.56334 12.86365,-25.61961 36.57892,-50.95976 57.51905,-61.46001 12.77128,-6.40405 22.95352,-8.61619 37.46796,-8.14009 11.78492,0.38656 14.96381,1.22609 36.69743,9.69158 19.47882,7.58722 24.18899,8.79282 34.02194,8.70812 10.07843,-0.0868 15.5602,-1.29393 33.27649,-7.32768 10.58916,-3.60641 15.1358,-4.84694 16.59212,-4.52708 3.75208,0.82409 3.73367,1.78204 -0.15019,7.81504 -13.1152,20.37247 -58.34584,100.06896 -64.29131,113.28145 -5.06948,11.26578 -6.16168,19.51101 -3.28156,24.77316 0.87505,1.59876 3.65126,4.53734 6.16935,6.53019 2.5181,1.99284 5.35604,4.71635 6.30654,6.05223 2.06374,2.90053 2.66945,8.06943 1.60827,13.72456 -0.40137,2.139 -1.8813,9.93485 -3.2887,17.32412 -1.40741,7.38926 -5.07983,28.27243 -8.16092,46.40703 -3.0811,18.1346 -6.56733,37.54468 -7.74717,43.13351 -13.12221,62.15882 -40.99834,108.86964 -78.87114,132.16093 -10.62693,6.53542 -24.19016,12.1094 -39.58313,16.26719 -6.56147,1.77232 -23.67205,2.45764 -33.23402,1.3311 z"
       id="path4533"
       inkscape:connector-curvature="0"
       transform="scale(0.26458333)" />
    <path
       style="display:inline;opacity:1;fill:#ffffff;fill-opacity:1;stroke:none;stroke-width:4.71701431;stroke-miterlimit:4;stroke-dasharray:none;stroke-opacity:1"
       d="M 353.34126,713.22114 C 292.63431,708.94715 239.91288,692.18816 190.70671,661.52318 148.55352,635.25357 110.65102,597.66236 83.922851,555.61634 64.654488,525.30533 49.622803,490.47944 40.889056,455.91429 15.775542,356.52367 36.683755,250.85906 97.702068,168.79625 117.07106,142.74712 142.61337,117.21394 168.40015,98.123433 246.43069,40.355756 344.74444,18.449405 439.56128,37.703089 c 82.37168,16.726548 155.87765,63.467861 206.21017,131.125851 57.33184,77.06663 79.53112,175.67066 60.73288,269.76123 -20.96905,104.9561 -89.12814,193.41331 -185.22521,240.38621 -36.84026,18.00777 -75.96925,28.99877 -118.44038,33.26889 -7.66792,0.77095 -42.62026,1.46005 -49.49748,0.97587 z m -0.5679,-8.07852 c 2.78986,-0.77485 5.79768,-3.84434 11.72756,-11.96804 5.48083,-7.5085 9.86948,-9.42015 14.76845,-6.43299 1.23202,0.75122 4.5731,4.47174 7.42462,8.26782 7.2154,9.60546 8.85385,10.43067 19.68028,9.91199 16.65968,-0.79815 40.89521,-5.0839 60.34055,-10.67048 30.99179,-8.90384 58.33611,-21.51631 86.33845,-39.82332 32.48665,-21.23871 61.46383,-48.44493 84.9086,-79.71937 37.761,-50.37175 59.02524,-104.24253 65.8709,-166.8772 1.75671,-16.073 1.75133,-57.1067 -0.009,-72.12489 -2.44539,-20.85744 -5.72185,-37.63421 -10.8162,-55.38303 C 660.42614,166.81008 569.87895,76.043245 462.26979,49.026058 431.86854,41.393286 414.67792,42.606417 402.626,53.235082 c -4.09976,3.615611 -7.50943,8.568031 -12.48082,18.127899 -2.05525,3.952211 -4.95951,8.379765 -6.45392,9.839008 -2.30656,2.252298 -3.29174,2.700826 -6.52045,2.968575 -5.66754,0.469996 -7.7088,-1.637933 -13.92951,-14.384444 -7.89968,-16.186834 -14.67117,-22.200979 -27.81669,-24.705561 -11.48804,-2.188791 -23.29387,-1.00886 -46.07651,4.605109 -39.65572,9.771742 -69.45941,22.590632 -101.11626,43.49121 -18.7902,12.405712 -33.42603,24.249092 -49.74758,40.255952 -27.96948,27.43021 -47.467619,54.01786 -64.849779,88.42912 -23.147547,45.82494 -34.490962,91.05842 -35.464906,141.42135 -0.942297,48.72646 6.122786,89.35883 22.930257,131.87542 13.187698,33.35991 34.312267,68.61662 55.846068,93.20655 8.03739,9.17807 27.03626,28.24705 36.51615,36.6509 35.08823,31.10547 82.60694,56.44074 130.48391,69.56933 18.01769,4.94072 43.29461,9.42077 60.91002,10.79561 1.75009,0.13659 3.65928,0.30216 4.24264,0.36794 0.58337,0.0658 2.237,-0.20712 3.67474,-0.60643 z"
       id="path4544"
       inkscape:connector-curvature="0"
       transform="scale(0.26458333)" />
    <g
       id="g34829"
       style="display:inline"
       transform="matrix(0.60963204,-0.03289643,0.0485638,0.52264691,175.87553,90.291716)">
      <path
         style="fill:#ffffff;fill-opacity:1;stroke:#000000;stroke-width:38.99760056;stroke-opacity:0"
         d="m -181.01933,55.305633 c 0,-1.083508 0.95459,-2.336328 2.12132,-2.784042 1.16673,-0.447716 2.12132,-1.866519 2.12132,-3.152896 0,-1.959578 -0.35811,-2.041662 -2.20827,-0.506164 -1.86504,1.54784 -2.75761,1.240277 -5.74245,-1.978743 -2.56783,-2.769292 -3.27054,-4.673126 -2.57,-6.962843 1.3888,-4.539242 10.23635,-20.466508 15.49844,-27.90013 2.4777,-3.5001785 7.23234,-11.13693155 10.56587,-16.9705623 11.41948,-19.9839387 25.95799,-42.7526867 26.5043,-41.1137417 0.30059,0.901779 -5.84343,12.471608 -5.10087,12.01268 0.80683,-0.498646 0.98107,0.635963 0.43301,2.819616 -0.57301,2.283069 -0.32898,3.654029 0.65042,3.654029 0.86214,0 1.56753,-0.807161 1.56753,-1.793691 0,-0.986529 2.54558,-4.874199 5.65685,-8.639265 3.20163,-3.874416 5.65686,-5.877298 5.65686,-4.614655 0,1.402021 0.78817,1.928468 2.12132,1.416893 1.16672,-0.447715 2.12132,-0.07199 2.12132,0.834954 0,0.90694 0.63639,1.255667 1.41421,0.774949 0.77782,-0.480717 1.41389,-0.677374 1.4135,-0.437016 -0.002,1.24498 -6.15864,16.383926 -8.64452,21.256653 -1.57619,3.089572 -2.59632,5.886868 -2.26698,6.216213 0.66171,0.661706 7.23193,-8.774495 11.34885,-16.299306 3.84061,-7.019771 6.46889,-9.346453 8.38899,-7.426355 1.15415,1.15416 0.94177,2.269922 -0.79803,4.192372 -1.30391,1.440805 -2.37074,3.267257 -2.37074,4.058781 0,2.325399 -4.34556,10.358968 -5.60342,10.358968 -0.6345,0 -3.40249,4.735478 -6.15111,10.5232858 -6.07142,12.7846897 -15.58084,27.0531302 -19.38787,29.0905872 -3.46588,1.854882 -3.8601,-0.900458 -0.72238,-5.048896 1.14199,-1.509846 2.09658,-3.586125 2.12132,-4.613956 0.0247,-1.027829 0.99957,-2.823375 2.16629,-3.9901012 1.16673,-1.1667261 2.12132,-4.0459602 2.12132,-6.3982979 0,-2.35233633 0.90321,-5.9661568 2.00713,-8.0307119 2.63499,-4.927959 6.48003,-15.368331 6.47113,-17.570936 -0.007,-1.705654 -6.9134,5.852566 -7.01318,7.674964 -0.028,0.510856 -2.06026,5.283827 -4.51619,10.6066015 -2.45593,5.32277306 -5.5721,12.5415525 -6.92481,16.0417305 -1.35271,3.500179 -3.32802,8.591348 -4.38956,11.313709 -3.95686,10.147453 -13.91351,26.344959 -18.91765,30.775287 -5.46503,4.83837 -9.14327,5.888359 -9.14327,2.610036 z"
         id="path28317"
         transform="matrix(0.26458333,0,0,0.26458333,5.2916565,5.2916565)"
         sodipodi:nodetypes="ssssssssssssssssssssssssssssssssssssssss"
         inkscape:connector-curvature="0" />
      <path
         style="display:inline;fill:#ffffff;fill-opacity:1;stroke:#000000;stroke-width:6.89385986;stroke-opacity:0"
         d="m -30.904168,-146.24287 c -2.093166,-1.70496 -5.548448,-2.56925 -8.218705,-2.24924 -5.661904,-4.46516 -7.203021,-2.02488 -12.12478,-11.11677 -0.373793,-0.80677 -0.70743,-1.70936 -0.964566,-1.99322 -0.257136,-0.28387 2.950656,-2.22235 3.860507,-3.67116 1.42653,-2.27155 -3.733368,2.05778 -4.255731,-0.39193 -0.625523,-2.9335 1.483133,-6.11606 1.632316,-6.45981 1.566309,-3.6091 3.70361,-7.19994 5.062628,-8.50564 0.507168,-0.48727 0.536325,-0.51663 2.1625,-2.17731 1.397225,-1.42687 3.505213,-2.46564 4.223471,-2.08124 0.645294,0.34535 0.812029,0.93304 0.823389,2.90219 0.0067,1.16944 0.133029,1.77877 0.449695,2.16983 l 0.440314,0.54377 0.813619,-0.81362 c 0.869236,-0.86924 0.872685,-0.90873 0.439966,-5.0375 2.287734,-2.45143 2.209988,-2.64152 5.763934,-4.11854 0.456166,-0.0985 0.890077,-0.33722 0.964247,-0.53051 0.218939,-0.57054 0.564809,-0.40806 1.114486,0.52357 0.55458,0.93995 1.05634,1.07507 1.827157,0.49205 0.266905,-0.20187 0.860315,-0.36705 1.318688,-0.36705 0.658932,0 0.883152,-0.13084 1.07103,-0.625 0.301285,-0.79244 0.629495,-0.79132 1.15056,0.004 0.296887,0.45311 0.367562,0.90738 0.25281,1.625 -0.137023,0.85689 -0.09529,0.99607 0.298675,0.99607 0.571682,0 2.547955,-1.66332 2.547955,-2.14448 0,-0.50909 0.985259,-0.44022 1.172872,0.082 0.08645,0.24063 0.360327,0.63519 0.60862,0.87679 0.507252,0.4936 0.405365,1.02035 -0.362325,1.87321 -0.439323,0.48807 -0.451325,0.5625 -0.0907,0.5625 0.291577,0 0.46335,0.29846 0.57553,1 0.16228,1.01485 0.503085,1.24292 1.046002,0.7 0.361998,-0.36199 0.402715,-1.95 0.05,-1.95 -0.1375,0 -0.25,-0.17587 -0.25,-0.39083 0,-0.29036 0.208903,-0.3707 0.8125,-0.3125 0.791793,0.0763 0.8189,0.11862 1.063653,1.65907 0.16752,1.05434 0.39646,1.66204 0.6875,1.82492 0.688555,0.38533 0.55952,1.21934 -0.188653,1.21934 -0.46765,0 -0.625,0.13178 -0.625,0.52341 0,0.31315 -0.20085,0.57593 -0.5,0.65416 -1.151595,0.30115 -0.304882,1.58474 2.251773,3.41363 0.74287,0.53141 1.637,1.08953 1.98695,1.24027 0.349952,0.15074 0.954285,0.53157 1.34296,0.8463 0.388672,0.31473 0.9177548,0.57223 1.1757347,0.57223 0.8987075,0 1.7783975,0.60138 2.172525,1.48518 0.2182475,0.4894 0.3776125,1.01739 0.3541425,1.17329 -0.023625,0.15702 0.4797125,0.36181 1.128345,0.45908 0.6440599,0.0966 1.4053674,0.32166 1.6917924,0.50017 0.2864275,0.1785 1.5332775,0.39612 2.7707774,0.48359 1.2375,0.0875 2.86875,0.32413 3.6249999,0.5259 1.70175,0.45404 2.98722,0.46143 3.5683249,0.0205 0.41956,-0.31834 0.41621,-0.34346 -0.0625,-0.46865 -0.880355,-0.23022 -0.57978,-1.00986 0.6232399,-1.61658 1.40393,-0.70805 1.47614,-0.70414 1.8423925,0.0997 0.2508375,0.55053 0.2057475,1.04152 -0.267415,2.9118 -0.540595,2.13682 -0.6131425,2.268 -1.4469675,2.61639 -0.48281,0.20173 -1.1932349,0.63217 -1.5787224,0.95654 -0.3854875,0.32437 -1.17394,0.71625 -1.75212,0.87085 -0.5781775,0.1546 -1.5574824,0.48369 -2.17623243,0.73131 -0.61874998,0.24762 -1.63094245,0.60131 -2.24931497,0.78598 -1.3798724,0.41209 -4.8974973,0.41812 -5.3065123,0.009 -0.161795,-0.16179 -0.5002025,-0.29417 -0.7520175,-0.29417 -0.2518175,0 -0.5226025,-0.16875 -0.6017475,-0.375 -0.079148,-0.20625 -0.300615,-0.375 -0.492155,-0.375 -0.455565,0 -0.45209,-0.90666 0.00415,-1.08173 0.42644,-0.16364 0.17327,-1.58531 -0.4523425,-2.54011 -0.220035,-0.33581 -0.40006,-0.7944 -0.40006,-1.01908 0,-0.86495 -0.8703001,-2.17858 -1.8510421,-2.79397 -0.563178,-0.35338 -1.517923,-1.07509 -2.121655,-1.60381 -0.852715,-0.74675 -1.305643,-0.9613 -2.029435,-0.9613 -0.89531,0 -0.974575,-0.0733 -2.027303,-1.87355 -0.937647,-1.6035 -1.127252,-1.80359 -1.315405,-1.38814 -0.226877,0.50095 -1.570672,1.26169 -2.228694,1.26169 -0.205135,0 -0.437725,-0.16875 -0.516873,-0.375 -0.22604,-0.58905 -0.659592,-0.43842 -0.659592,0.22917 0,0.33229 -0.140625,0.6563 -0.3125,0.72003 -0.224635,0.0833 -0.181063,0.24729 0.154975,0.58333 0.336037,0.33604 0.50005,0.37961 0.583332,0.15497 0.06372,-0.17187 0.26707,-0.3125 0.45188,-0.3125 0.42981,0 1.37477,1.1921 1.364393,1.72122 -0.0056,0.28365 -0.16053,0.19924 -0.520853,-0.28372 -0.673767,-0.90307 -0.889047,-0.86812 -1.342872,0.21804 -0.529385,1.26699 -0.481248,2.49157 0.121645,3.09446 0.275,0.275 0.5,0.77461 0.5,1.11025 0,0.72689 0.44084,1.08482 0.653512,0.5306 0.228655,-0.59586 0.596488,-0.4659 0.596488,0.21075 0,0.47851 -0.102298,0.57484 -0.5,0.47084 -0.61913,-0.1619 -0.621383,-0.0404 -0.02107,1.13626 0.4985,0.97714 2.150827,2.60006 3.413687,3.35292 0.402812,0.24015 1.380345,0.83641 2.172295,1.32504 1.118212,0.68993 1.945902,0.97025 3.704725,1.25472 3.6118421,0.58417 2.2677029,0.96946 1.1782554,1.92723 -8.7945244,3.68464 -9.0455194,4.32783 -12.8387454,4.43139 -1.006297,0 -1.890182,-0.098 -1.964185,-0.21771 -0.074,-0.11974 -0.469287,-0.28465 -0.87841,-0.36648 -0.976207,-0.19524 -1.55736,-1.12709 -1.578587,-2.53118 -0.01057,-0.69908 -0.13103,-1.13463 -0.31381,-1.13463 -0.419498,0 -1.12415,-0.83505 -1.12415,-1.33218 0,-0.2298 -0.1125,-0.41782 -0.25,-0.41782 -0.1375,0 -0.25,-0.16875 -0.25,-0.375 0,-0.52115 0.73127,-0.47156 0.921655,0.0625 0.501157,1.40583 1.328345,1.11433 1.328345,-0.46811 0,-0.69501 0.10614,-0.96939 0.375,-0.96939 0.212352,0 0.375,0.22407 0.375,0.51661 0,0.41608 0.13378,0.50121 0.6875,0.4375 0.593835,-0.0683 0.697912,-0.20416 0.763922,-0.997 0.06426,-0.77177 0.203555,-0.96638 0.875,-1.22242 0.595843,-0.22721 0.687553,-0.33203 0.361248,-0.4129 -0.24053,-0.0596 -0.505853,-0.3814 -0.589603,-0.71508 -0.19605,-0.78114 -0.547002,-0.77357 -0.848067,0.0183 -0.130693,0.34375 -0.41269,0.625 -0.626658,0.625 -0.740402,0 -0.699092,-0.75988 0.09503,-1.74806 0.429892,-0.53494 0.781625,-1.14401 0.781625,-1.35349 0,-0.48761 -0.76942,-0.89953 -1.671065,-0.89463 -0.86428,0.005 -1.15202,0.18745 -1.602843,1.01798 -0.928992,1.71145 -2.32103,3.56489 -2.419934,3.22203 -0.05852,-0.20286 -0.376346,-1.06302 -0.706279,-1.91147 -0.582792,-1.4987 -0.781377,-3.43112 -0.408551,-3.9756 0.10102,-0.14753 0.387524,-0.34355 0.636676,-0.4356 0.417013,-0.15407 0.421979,-0.21167 0.0625,-0.72489 -0.540224,-0.77128 -0.488394,-1.34936 0.161814,-1.80478 0.412749,-0.2891 0.480451,-0.45872 0.267917,-0.67126 -0.175468,-0.17547 -0.201908,-0.43969 -0.06903,-0.68982 0.118454,-0.22298 0.682432,-1.53042 1.253286,-2.90542 0.570855,-1.375 1.205995,-2.6874 1.411422,-2.91646 0.205428,-0.22905 0.983388,-0.66399 1.728798,-0.96653 1.76531,-0.71649 1.843385,-1.74201 0.132625,-1.74201 -0.237473,0 -0.650148,-0.16661 -0.917053,-0.37024 -1.155067,-0.88127 1.294088,-1.19595 3.061793,-0.39339 1.158855,0.52613 2.577925,2.25765 2.577925,3.14553 0,0.73849 0.592225,1.20187 1.263685,0.98876 0.491172,-0.15589 0.523319,-0.28559 0.371654,-1.49948 -0.112757,-0.90248 -0.06403,-1.49214 0.151855,-1.83783 0.433673,-0.69442 0.01277,-1.88172 -0.703617,-1.98481 -0.29225,-0.0421 -0.729297,-0.29518 -0.971217,-0.5625 -0.49961,-0.55206 -1.633453,-0.62299 -3.934485,-0.24613 -1.756088,0.28762 -2.06754,0.18629 -2.405263,-0.7825 -0.393005,-1.12738 -0.879347,-0.74107 -1.022612,0.81228 -0.120323,1.30461 -0.700717,2.46323 -1.61333,3.22063 -0.212669,0.1765 -0.38667,0.53213 -0.38667,0.7903 0,0.55265 -0.56404,0.61968 -0.981529,0.11664 -0.200127,-0.24114 -0.209812,-0.404 -0.03061,-0.51475 0.440698,-0.27237 0.292023,-1.09892 -0.249827,-1.38891 -0.281582,-0.1507 -0.6155,-0.54631 -0.742041,-0.87914 -0.198697,-0.52261 -0.341968,-0.58392 -1.050533,-0.44958 -1.661603,0.31503 -2.046257,0.77004 -1.290156,1.52614 0.373737,0.37374 0.364002,0.43875 -0.125,0.83472 -0.651732,0.52774 -0.682555,1.48085 -0.07226,2.23453 0.457188,0.5646 0.455212,0.56805 -1.0625,1.85533 -0.836296,0.70932 -1.556489,1.53599 -1.600427,1.83704 -0.04999,0.34251 -0.257213,0.54736 -0.553704,0.54736 -0.687213,0 -1.03652,0.84847 -0.958042,2.32708 0.06394,1.20459 0.02245,1.31021 -0.60059,1.52933 -0.550583,0.19363 -0.645518,0.34915 -0.535336,0.87698 0.07366,0.35289 0.183537,0.88784 0.244164,1.18879 0.06063,0.30095 -0.0027,0.61697 -0.140686,0.70226 -0.509396,0.31482 -0.20782,3.75395 0.657721,7.50056 0.562928,2.43672 1.814613,5.60317 2.576623,6.51823 0.351856,0.42252 2.64612,2.91124 3.896368,3.95195 5.104772,4.24921 8.98818,3.35334 2.978181,0.98602 -0.491229,-0.19349 -3.757695,-2.78568 -4.323663,-3.71375 -0.254089,-0.41666 -0.519521,-1.35641 -0.589849,-2.08833 -0.09836,-1.02363 -0.274578,-1.45463 -0.763536,-1.86744 -0.838154,-0.70763 -1.045573,-1.17043 -1.552439,-3.46385 -0.322995,-1.46145 -0.36378,-2.12601 -0.168772,-2.75 0.141433,-0.45255 0.376496,-1.63061 0.522361,-2.6179 0.145866,-0.9873 0.377907,-2.0915 0.515647,-2.45378 0.13774,-0.36228 0.250436,-1.03848 0.250436,-1.50267 0,-0.46418 0.103898,-0.90818 0.230885,-0.98666 0.126987,-0.0785 0.414402,-0.69522 0.638701,-1.37052 0.490396,-1.47644 1.220461,-2.27903 0.980161,-1.07753 -0.08273,0.41367 0.08084,1.80008 0.364921,3.09298 0.283177,1.28879 0.635744,3.9745 0.783481,5.96825 0.307706,4.15259 -0.111852,6.58913 3.425383,8.92258 3.441365,2.2702 4.077747,3.20866 8.758258,2.56227 4.790769,-0.66161 11.5221012,-4.04648 14.4250054,-5.20086 1.5496998,-0.61626 8.3094143,-1.52963 9.4179221,15.99582 0.2236264,3.53552 1.0858152,4.78115 3.1427815,6.0924 0.4566369,0.29109 -3.7364586,-0.24882 -4.0152939,-6.59197 -0.7269586,-4.80399 -3.3712261,-16.83962 -16.3396251,-9.34184 -6.247914,2.83393 -4.495813,4.09273 -6.709401,4.88662 -2.117477,0.75942 -7.262568,-0.25117 -7.441794,-0.13309 z"
         id="path26485"
         transform="matrix(0.26458333,0,0,0.26458333,5.2916565,5.2916565)"
         inkscape:label="k"
         sodipodi:nodetypes="cccssssssssscsccssssssssssssssssssssssssssssssssssssssssssssssssssssssssssssssssssssssssssccsssssssssssssssssssscssssssssssssssssssssssssssssssssssssssssssssssssssssssssssssssssccssc"
         inkscape:connector-curvature="0" />
      <path
         id="path26011"
         style="display:inline;fill:#ffffff;fill-opacity:1;stroke:#000000;stroke-width:2.48672009;stroke-opacity:0"
         inkscape:label="k"
         transform="matrix(0.48579258,0.03057674,-0.04389211,0.55098727,-307.00945,-212.57891)"
         d="m 622.10436,251.39883 c 2.14053,3.71537 7.86073,7.66177 11.3277,8.50129 3.63611,0.23489 3.34338,3.81182 3.36458,4.04638 0.0272,0.30051 -0.31261,1.22794 -1.14234,1.49491 -0.59522,0.19151 -0.96027,0.40725 -1.14649,0.85937 -0.0192,0.0467 2.37165,-0.72127 3.66407,-0.0449 3.78053,1.97837 6.43438,3.74754 7.48632,2.20312 0.0851,-0.12495 0.11313,0.53786 -0.33203,0.73243 -4.29876,0.37141 -4.92768,-3.27903 -9.7344,-1.23411 -0.43094,0.18732 -0.641,0.26894 -1.17234,0.56107 -0.77961,0.48449 -0.87977,0.56174 -1.23199,0.83343 -0.73066,0.46262 -1.28129,1.12487 -1.84766,1.67575 -0.19498,0.35154 -0.40804,0.69583 -0.57812,1.06055 -0.14173,0.30479 -0.23339,0.63272 -0.34375,0.94922 -0.15043,0.46829 -0.0681,0.2329 -0.23438,0.67187 -0.0831,0.21915 -0.11292,0.34468 -0.24218,0.53321 -0.003,-0.007 -0.009,-0.0272 -0.0117,-0.0215 -0.0189,0.0274 -0.018,0.0612 -0.0293,0.0918 -0.0537,0.40764 -0.0127,0.0252 -0.043,0.56641 -0.008,0.1065 -0.0178,0.21395 -0.0254,0.32031 -0.004,0.017 -0.0144,0.033 -0.0156,0.0508 -0.004,0.0686 0.0169,0.3028 0.0195,0.33984 0.008,0.0806 0.0178,0.15951 0.0254,0.24024 0.0125,0.12075 0.0166,0.27723 0.0469,0.39844 0.0144,0.0576 0.0338,0.11315 0.0527,0.16992 0.0299,0.0967 0.0596,0.19422 0.0898,0.29101 0.017,0.074 0.0319,0.14937 0.0508,0.22266 0.0582,0.21299 0.13541,0.42038 0.20117,0.63086 0.003,0.009 10e-4,0.0186 0.004,0.0273 0.008,0.0292 0.018,0.0572 0.0293,0.0859 0.009,0.0255 0.10975,0.296 0.12109,0.31641 0.11943,0.22508 0.25098,0.37678 0.43164,0.5664 0.38536,0.40463 0.36215,0.3667 0.75,0.66406 h -0.004 c 0.19713,0.15116 0.29276,0.32356 0.3125,0.47266 0.59093,0.0211 0.75112,-0.25273 1.07421,-1.28516 0.13531,-0.43235 0.45854,-0.73387 0.7129,-0.66406 0.0107,0.003 0.0157,0.0165 0.0254,0.0215 0.0661,-0.078 0.13391,-0.15662 0.19531,-0.23828 -0.19858,-0.16797 -0.16082,-0.50006 0.0859,-1.06055 0.34315,-0.77931 1.32683,-1.63186 2.20507,-1.91016 0.70455,-0.22326 1.46091,-0.61528 2.00977,-1.04101 l 0.42969,-0.33203 0.38672,0.11132 c 0.50442,0.14533 1.37684,0.10071 1.52148,-0.0781 0.0593,-0.0733 0.24978,-0.14279 0.42187,-0.15234 0.283,-0.0157 0.3162,-0.0461 0.34961,-0.32227 0.0243,-0.20095 0.16615,-0.43253 0.41602,-0.67969 0.20886,-0.20658 0.45143,-0.49075 0.53711,-0.63086 0.0898,-0.14685 0.35833,-0.34893 0.63476,-0.47656 0.26375,-0.12176 0.61314,-0.34099 0.77735,-0.48633 0.35313,-0.31254 0.76022,-0.53653 1.39844,-0.76953 0.25706,-0.0939 0.53918,-0.27035 0.6289,-0.39453 0.40544,-0.56116 0.38464,-2.0726 -0.0547,-3.89844 -0.1501,-0.6239 -0.24738,-1.27148 -0.24609,-1.63476 -0.0757,-0.44191 0.51073,-0.39435 0.24609,-0.95313 -1.742,-2.35444 1.3153,0.0806 0.99415,2.37305 0.45423,2.47794 0.60639,4.22734 0.68164,4.1289 0.47,-0.6149 1.44822,-0.91675 1.93945,-1.41992 -0.79241,-2.59631 -0.3984,-3.41737 -1.88867,-7.48242 -0.23404,-0.71302 -0.4081,-1.18269 -1.28321,-1.96289 -0.0258,-0.0561 -0.58496,-0.69571 -0.94531,-0.875 -1.10984,-0.74603 -2.00521,-1.06186 -5.03906,-0.66797 -1.46109,0.0143 -3.16628,1.10293 -8.55273,0.50586 3.83704,1.23569 8.4928,-0.23751 12.0039,2.81445 1.05171,1.30262 1.57797,2.29789 0.12305,1.70508 -0.36172,-1.95554 -1.98782,-3.38336 -8.97266,-3.57812 -3.31666,-0.13947 -9.61942,-2.91054 -12.10372,-6.14305 z m 11.46205,15.41167 c -1.51995,0.34512 -1.23454,-0.0807 -2.20949,0.16551 -0.64374,0.16258 -1.44611,0.5234 -1.47215,0.56691 -0.026,0.0435 -1.21108,-0.20157 -1.51243,-0.0203 -1.87578,1.8249 -3.68671,-0.3597 -3.85369,7.49157 0.34104,1.2663 1.31861,1.83972 2.33291,2.3022 0.40462,0.18448 0.65423,0.36655 0.81055,0.59179 1.01533,0.81595 1.94156,1.35216 3.0957,1.59766 -0.10009,-0.0864 -0.20608,-0.18949 -0.41406,-0.4043 -0.21649,-0.22369 -0.39495,-0.43728 -0.54687,-0.70703 -0.0718,-0.12714 -0.13894,-0.31837 -0.19336,-0.46094 -0.0113,-0.0325 -0.0238,-0.0648 -0.0352,-0.0976 -0.0113,-0.0366 -0.018,-0.0747 -0.0293,-0.11133 -0.008,-0.0319 -0.0238,-0.062 -0.0351,-0.0937 -0.009,-0.0279 -0.14857,-0.46825 -0.15235,-0.48828 -0.0246,-0.0908 -0.0418,-0.18194 -0.0644,-0.27344 -0.0249,-0.079 -0.0497,-0.15921 -0.0762,-0.23828 -0.0189,-0.0571 -0.0376,-0.11194 -0.0527,-0.16992 -0.0646,-0.25663 -0.0733,-0.52339 -0.10351,-0.78516 -0.004,-0.0592 -0.0253,-0.32102 -0.0215,-0.40625 0.004,-0.066 0.0178,-0.13165 0.0254,-0.19726 0.008,-0.0844 0.0158,-0.16749 0.0195,-0.25196 0.0272,-0.51021 -0.0117,-0.12432 0.0469,-0.60547 0.0193,-0.0684 0.0263,-0.14022 0.0527,-0.20507 0.23774,-0.5472 0.0452,0.0207 0.20313,-0.36329 0.0272,-0.0667 0.0439,-0.13731 0.0703,-0.20507 0.20523,-0.56197 0.05,-0.0926 0.22461,-0.64258 0.11565,-0.33331 0.21084,-0.67686 0.35938,-0.99805 1.10082,-1.85497 2.36315,-2.91782 3.97461,-4.0019 0.47732,-0.26 0.67705,-0.36274 1.22461,-0.53517 0.85871,-0.31677 1.97357,-0.53839 3.2509,-0.4164 -1.28994,-0.87797 -2.4702,-0.46107 -4.91889,-0.0369 z m 5.375,7.64653 c -0.0584,-0.004 -0.1242,0.003 -0.19532,0.0234 -0.12542,0.0354 -0.43435,0.24118 -0.68554,0.45898 -0.2512,0.2178 -0.59209,0.43992 -0.75782,0.49219 -0.26508,0.0836 -0.30251,0.13743 -0.32226,0.45703 -0.0316,0.51089 -0.3562,0.8227 -0.89649,0.86133 -0.57111,0.0409 -0.81432,-0.0353 -0.67382,-0.20898 0.0768,-0.095 0.0751,-0.13134 -0.004,-0.12696 -0.13935,0.008 -0.22763,0.2799 -0.26758,0.82227 -0.0307,0.41718 -0.62218,1.59324 -0.81055,1.61133 -0.0472,0.005 -0.12316,-0.38497 -0.11523,-0.66797 0.008,-0.28112 -0.003,-0.40752 -0.0508,-0.48828 -0.0845,0.10938 -0.17898,0.21251 -0.26563,0.32031 0.0502,0.4375 -0.19055,1.24943 -0.54882,1.58203 -0.42592,0.39539 -0.27943,0.58312 0.70507,0.90039 0.9911,0.3194 1.92916,0.515 2.97266,0.62109 0.42756,0.0435 0.90715,0.0642 1.06445,0.0469 l 0.28516,-0.0312 -0.0293,-1.01563 c -0.0432,-1.51074 0.22986,-3.04465 0.75977,-4.26757 0.33296,-0.7684 0.24458,-1.36164 -0.16406,-1.39063 z"
         sodipodi:nodetypes="ccssssscccccccsccccccccscccccccscccssccssccssssssssssscccsccccccccccccssccsccscccccccccccccccccccccccccssssscscsccssscccsccc"
         inkscape:connector-curvature="0" />
      <path
         style="display:inline;fill:#ffffff;fill-opacity:1;stroke:#000000;stroke-width:6.89385986;stroke-opacity:0"
         d="m -126.49444,62.203773 c -0.006,-2.05045 -0.28613,-3.328775 -0.73059,-3.328775 -0.27046,0 -1.77497,2.673958 -1.77497,3.15464 0,0.59338 -0.43659,0.584908 -2.53037,-0.0491 -2.85976,-0.865957 -5.46247,-1.564935 -7.84463,-2.10673 -1.1,-0.250185 -2.73125,-0.802175 -3.625,-1.226645 -1.94295,-0.922772 -3.17753,-0.976532 -6.25,-0.27216 -2.91167,0.667513 -3.21035,0.655315 -3.06118,-0.125 0.16375,-0.856614 -0.24279,-0.812174 -2.53697,0.277328 -1.3775,0.654175 -2.07989,0.85719 -2.55401,0.738195 -0.62914,-0.157905 -0.63736,-0.182475 -0.21658,-0.64744 0.24057,-0.265818 0.80617,-0.552487 1.25689,-0.637045 0.45073,-0.08456 1.07365,-0.424257 1.38426,-0.754887 0.31061,-0.330633 0.71389,-0.60115 0.89617,-0.60115 0.18228,0 0.33142,-0.104675 0.33142,-0.232613 0,-0.127937 0.25313,-0.268562 0.5625,-0.3125 0.36149,-0.05134 0.59105,-0.280897 0.64239,-0.642387 0.0439,-0.309375 0.24192,-0.5625 0.43995,-0.5625 0.19803,0 0.55271,-0.225 0.78817,-0.5 0.23546,-0.275 0.59077,-0.5 0.78958,-0.5 0.19881,0 1.496,-1.169428 2.88265,-2.598725 2.12001,-2.185217 2.70008,-2.64371 3.64547,-2.881431 2.57124,-0.64654 3.77405,-1.650737 1.62429,-1.356081 -0.61875,0.08481 -1.125,0.07892 -1.125,-0.01309 0,-0.383277 1.40829,-2.947125 2.96218,-5.392776 1.75428,-2.761042 3.65521,-4.862276 4.20717,-4.650471 0.35063,0.134549 2.31259,-1.069737 3.29686,-2.023671 0.32517,-0.315142 1.84392,-1.352307 3.375,-2.304811 1.53109,-0.952504 3.28193,-2.093519 3.89076,-2.535588 1.04165,-0.756333 2.48534,-1.359376 2.71193,-1.132794 0.0561,0.0561 -0.0408,0.496774 -0.21522,0.979266 -0.35922,0.993412 -0.0421,1.660175 0.78951,1.660175 0.25133,0 0.56698,0.196576 0.70143,0.436835 0.22233,0.397276 0.70454,0.430286 5.32493,0.364521 6.88236,-0.09796 8.95972,-0.562942 10.23773,-2.291549 0.29934,-0.404876 0.94891,-0.898855 1.44349,-1.09773 0.49458,-0.198876 1.78597,-1.047951 2.86976,-1.886834 1.08379,-0.838884 2.107813,-1.525243 2.275618,-1.525243 0.167802,0 0.847235,0.690057 1.50985,1.53346 1.373457,1.748192 2.853907,2.563821 5.135169,2.829142 2.047198,0.238097 4.367058,-0.220025 8.945783,-1.766599 l 4.08695,-1.380465 8.413049,-0.0103 c 6.962695,-0.0085 8.73629,0.06152 10.288053,0.406326 1.03125,0.229145 3.076397,0.516177 4.544769,0.637848 2.74017,0.227054 8.873523,1.534159 12.20523,2.601109 3.33586,1.06828 13.580085,4.646232 13.728872,4.795019 0.07944,0.07944 -0.26097,0.501065 -0.756462,0.936947 -0.495493,0.435883 -1.792768,1.593442 -2.882835,2.572353 -2.092023,1.878697 -3.717455,2.737722 -7.839575,4.143134 -4.415295,1.505368 -10.184385,3.028638 -12.125,3.201484 -1.1,0.09797 -2.73125,0.354848 -3.625,0.570829 -1.675874,0.404987 -5.775669,1.034481 -9.499999,1.458656 -1.16875,0.133113 -2.63125,0.404258 -3.25,0.602545 -0.61875,0.198286 -2.295083,0.593684 -3.725183,0.87866 -1.4301,0.284976 -3.011217,0.727833 -3.513592,0.984125 -1.1058,0.564138 -2.949135,0.907995 -6.756237,1.26031 -1.578508,0.14608 -3.622933,0.436845 -4.543168,0.64615 -1.668417,0.379473 -1.67363,0.383353 -1.84028,1.369755 0.679495,2.562558 2.61838,3.365499 4.720967,4.2974 -7.483002,-1.518133 -9.613625,-2.997106 -13.565094,-3.335055 -6.473825,-0.539412 -8.777385,-1.05888 -8.777385,-1.979365 0,-0.542085 -0.63191,-1.105957 -0.99082,-0.884137 -0.1445,0.08931 -0.43822,0.501735 -0.65271,0.916507 l -0.38998,0.754133 -2.67074,-0.16877 c -4.29058,-0.271133 -9.64063,0.5094 -10.69096,1.559732 -0.35798,0.35798 -0.39319,0.745548 -0.2436,2.681268 0.29223,3.781554 0.37614,3.480577 -1.66813,5.983869 -0.41723,0.510915 -0.43213,0.459238 -0.4375,-1.517295 z"
         id="path28356"
         transform="matrix(0.26458333,0,0,0.26458333,5.2916565,5.2916565)"
         sodipodi:nodetypes="ssssssssssssssssssssssssssssssssssssssssscsssssssssssssssscccssscssssss"
         inkscape:connector-curvature="0" />
      <path
         style="display:inline;fill:#ffffff;fill-opacity:1;stroke:#000000;stroke-width:19.49880028;stroke-opacity:0"
         d="m -110.75504,-46.149542 c -1.14148,-0.74131 0.43638,-8.756478 2.03738,-10.349448 0.68059,-0.677175 1.23743,-1.994006 1.23743,-2.926291 0,-1.283823 0.2827,-1.586585 1.16523,-1.24793 0.9677,0.371344 1.09472,0.09789 0.74931,-1.613186 -0.22875,-1.133174 -0.1167,-3.094462 0.24899,-4.358415 1.85982,-6.428131 2.40562,-7.715864 3.83847,-9.056235 1.706426,-1.596286 4.370548,-7.853757 3.650365,-8.573938 -0.519538,-0.51954 -3.288405,1.79813 -3.288405,2.752547 0,0.349969 -1.22445,2.448492 -2.72101,4.663377 -1.49655,2.214884 -2.84889,4.353118 -3.0052,4.75163 -0.77125,1.966343 -6.05202,8.771086 -6.82493,8.794548 -0.48614,0.01478 -0.88389,0.444594 -0.88389,0.955195 0,0.510602 -0.95459,1.842926 -2.12132,2.96072 -2.53451,2.428219 -2.78829,1.368421 -0.78275,-3.26887 2.11461,-4.889473 2.41613,-6.278323 1.36073,-6.267639 -0.51234,0.0049 -2.12118,1.834829 -3.57519,4.065864 l -6.02478,9.945971 3.37312,-8.54119 c -0.004,-1.458408 -0.32619,-2.65165 -0.7151,-2.65165 -0.38891,0 -0.72947,0.397747 -0.7568,0.883883 -0.0273,0.486136 -1.9927,2.7785 -2.32694,2.000682 -0.87608,-2.038744 0.83009,-7.86493 1.72653,-7.657536 0.42026,0.09723 2.13045,-3.482501 3.80042,-7.954951 1.66997,-4.47245 4.9854,-12.36355 7.36762,-17.535774 2.34146,-5.537192 5.19548,-11.464572 6.76118,-17.019612 2.61232,-9.5961 14.724685,-41.73581 15.919903,-49.26521 1.143017,-7.20057 12.46515,-30.20616 11.484485,-26.3646 -3.404812,13.33766 -1.310983,10.6918 -0.71333,13.36863 0.785384,1.65381 1.312573,2.54312 3.990778,3.50075 2.597977,2.80764 3.632537,3.76238 9.118103,5.38009 2.401566,0.70822 10.080227,5.64227 16.539172,2.23692 -15.050745,11.54915 -25.103713,-0.99789 -31.708606,1.94434 -3.382976,1.55431 -13.600804,14.28695 -13.600804,18.81071 -0.124306,3.12935 4.099784,2.43994 5.136688,1.32948 1.428979,-2.04534 -1.115024,1.47396 -2.42246,-0.26199 -1.945283,-3.97547 1.722894,-8.21866 4.399109,-7.78798 2.268494,0.36507 1.308782,-3.2512 2.809552,-5.6967 1.112319,-1.81252 3.524863,0.24151 3.170069,1.43334 -0.634851,2.1326 -2.007605,3.84455 -1.392434,4.08062 1.580431,0.60647 1.833635,-0.87044 1.833635,-2.06054 0,-1.15381 3.118524,-0.96074 3.527392,1.03044 0.08143,0.39657 -2.315642,2.44358 -3.244608,4.72693 -1.841694,4.52678 -1.804922,5.26604 0.235404,4.73249 1.400075,-0.36613 5.722072,-5.27113 5.722072,-6.49393 0,-0.38394 0.404417,-1.11854 0.898703,-1.63246 0.494286,-0.51391 1.965167,-2.61399 3.268623,-4.66685 1.642992,-2.5876 2.722907,-3.62911 3.520715,-3.39553 4.838418,0.7368 9.690475,0.31732 14.831988,-2.49065 0.991005,1.751 2.407691,7.04601 6.85487,9.62488 l 5.924899,3.29335 -4.044775,0.84701 c -1.351711,0.28306 -5.726807,1.52138 -7.798955,1.70828 -3.078912,0.2777 -4.139952,0.0645 -5.805,-1.16654 -1.120599,-0.8285 -2.2247,-1.50636 -2.453556,-1.50636 -0.887729,0 -3.879138,-4.00263 -4.624056,-6.18718 -0.796648,-2.33626 -2.088174,-3.13008 -2.088174,-1.28347 0,3.24629 4.002911,8.66093 7.919836,10.71296 2.690816,1.40969 7.763135,1.72329 13.927478,-0.57928 12.528873,-4.67992 15.392803,2.29153 17.008002,2.23411 -3.586317,1.17621 -3.708124,-0.4484 -7.965833,-0.41353 -4.810121,0.0394 -11.938319,4.73572 -15.021792,7.3539 -2.219594,1.88466 -20.575324,24.51455 -19.387024,24.98207 0.885467,0.34837 7.770813,-11.37867 8.362266,-11.94308 6.359609,-6.06877 11.220713,-10.36703 16.319945,-14.60675 2.514628,-2.30088 4.989486,-3.70543 7.440079,-4.61769 2.54388,-0.97151 4.399398,-0.67493 6.165426,-0.0593 1.216711,0.42414 3.615951,0.19464 4.335729,0.19464 1.590191,0 1.868448,-0.65943 0.872593,-1.11122 -5.653958,-2.95016 -0.48476,-2.98136 0.01843,-3.60361 0.70195,0.12518 2.488725,0.37837 4.215998,0.4001 1.727272,0.0217 3.395042,-0.188 3.858981,-0.98866 1.435454,-2.47728 6.143723,-5.11115 9.6157823,-6.45963 3.3235999,-1.29083 5.966344,0.33398 6.3518439,0.71142 l 1.2964929,1.26939 -1.7200624,-0.73141 c -5.543024,-0.41868 -5.9657854,6.68187 -14.8170597,10.59832 -2.590532,2.2572 -3.877494,1.98077 -10.473664,7.50005 -7.146099,6.90032 -17.116319,11.85914 -23.868347,18.02432 -3.481126,3.30219 -5.5667,9.05004 -8.143437,11.70217 -4.698061,4.57447 -10.15573,11.566025 -12.582013,16.118195 -1.218618,2.286366 -3.14944,5.112254 -4.290717,6.279765 -1.141276,1.167511 -1.890687,2.421049 -1.665357,2.785633 0.22533,0.364592 -0.403715,1.416738 -1.397878,2.338091 -0.994163,0.92136 -1.807568,2.172465 -1.807568,2.780231 0,0.607765 -0.795495,1.730764 -1.767767,2.495556 -0.972272,0.764793 -1.767767,1.90158 -1.767767,2.526196 0,0.624616 -0.318198,1.13567 -0.707107,1.13567 -0.388908,0 -0.707107,0.649074 -0.707107,1.442385 0,1.70272 -2.104911,1.829677 -5.909322,7.857981 -4.021642,5.538901 -6.517595,9.120317 -13.602432,13.690339 -2.77169,1.180784 -2.68731,0.08959 -3.68652,-0.559324 z"
         id="path22885"
         inkscape:label="k"
         transform="matrix(0.26458333,0,0,0.26458333,5.2916565,5.2916565)"
         sodipodi:nodetypes="ssssssssssssssscsccsssssccssccscccccsssssssssssccscsssssssscssssccssccssssccccccsssssssssccss"
         inkscape:connector-curvature="0" />
      <path
         style="display:inline;fill:#ffffff;fill-opacity:1;stroke:#000000;stroke-width:6.89385986;stroke-opacity:0"
         d="m -157.2,55.574999 c -0.165,-0.165 -0.3,-0.794873 -0.3,-1.399718 0,-0.604845 -0.18922,-1.49848 -0.4205,-1.985855 -0.41085,-0.86581 -0.40735,-0.896785 0.1527,-1.350282 0.31526,-0.25528 0.92945,-0.464145 1.36487,-0.464145 0.79939,0 1.76605,-0.499498 2.34043,-1.209358 0.17188,-0.212415 0.3125,-0.993987 0.3125,-1.73683 0,-1.14282 0.0773,-1.37085 0.50274,-1.48209 0.2765,-0.07231 0.56995,-0.399275 0.6521,-0.726595 0.0915,-0.36445 0.33267,-0.595127 0.62227,-0.595127 0.38566,0 0.47289,0.18592 0.47289,1.007845 0,0.661975 -0.12776,1.056872 -0.37228,1.150707 -0.20476,0.07857 -0.49656,0.60436 -0.64844,1.168415 -0.32185,1.195255 -0.93101,2.080513 -2.45142,3.56248 -1.11739,1.089148 -1.26667,1.87922 -0.3482,1.84298 0.82056,-0.03237 1.28167,-0.350535 2.05226,-1.416055 0.42109,-0.582247 1.15329,-1.220612 1.62712,-1.41859 0.57069,-0.238447 1.03414,-0.69834 1.37289,-1.362352 0.28126,-0.551313 0.72077,-1.150448 0.97669,-1.33141 0.25592,-0.18096 0.53959,-0.728578 0.63037,-1.216928 0.0929,-0.499705 0.81999,-1.780182 1.66304,-2.928755 0.82388,-1.122465 1.49797,-2.209575 1.49797,-2.415797 0,-0.20622 0.225,-0.495365 0.5,-0.64254 0.275,-0.147175 0.5,-0.428425 0.5,-0.625 0,-0.196575 0.225,-0.477825 0.5,-0.625 0.39738,-0.212668 0.5,-0.523455 0.5,-1.514155 0,-1.087062 0.08,-1.283002 0.625,-1.531332 0.6294,-0.286773 0.83847,-0.84158 0.3754,-0.99618 -0.26733,-0.08925 0.62636,-2.10031 1.18917,-2.675968 0.18424,-0.188447 0.39863,-0.660822 0.4764,-1.04972 0.0778,-0.388897 0.35351,-0.899022 0.61273,-1.133612 0.25922,-0.23459 0.4713,-0.664225 0.4713,-0.954745 0,-0.290523 0.26675,-0.920778 0.59278,-1.40057 0.65981,-0.971 1.90722,-3.943783 1.90722,-4.545223 0,-0.213 0.16875,-0.527322 0.375,-0.698495 0.20625,-0.171172 0.375,-0.45708 0.375,-0.635352 0,-0.17827 0.16519,-0.64262 0.36709,-1.031888 0.2019,-0.389267 0.60785,-1.55151 0.90211,-2.582759 0.49452,-1.733075 1.60987,-4.106513 2.34964,-5 0.17077,-0.20625 0.79721,-1.44375 1.39209,-2.75 0.59488,-1.3062502 1.44106,-2.8812502 1.88041,-3.5000002 0.43935,-0.61875 1.02906,-1.5825259 1.31047,-2.1417244 0.28141,-0.5591983 0.68862,-1.1635983 0.90492,-1.343111 0.2163,-0.1795127 0.39327,-0.488868 0.39327,-0.6874562 0,-0.198588 0.26185,-0.719188 0.58189,-1.1568888 0.32004,-0.4377007 0.89346,-1.52706941 1.27427,-2.42081939 0.38081,-0.89375001 0.97762,-1.86610821 1.32623,-2.16079591 0.44925,-0.3797585 0.69369,-0.9143728 0.83934,-1.8357395 0.13748,-0.869701 0.60006,-1.9330047 1.39765,-3.2126887 0.87108,-1.3975814 1.19934,-2.1824854 1.21881,-2.9142599 0.0147,-0.550834 0.11158,-1.191819 0.21538,-1.424412 0.23213,-0.520166 0.1085,-1.211347 -0.22857,-1.277809 -0.1375,-0.02711 -0.28598,0.204077 -0.32996,0.513754 -0.044,0.309676 -0.29226,0.676668 -0.55174,0.815538 -0.25948,0.138869 -0.54416,0.63832 -0.63263,1.109891 -0.0885,0.47157 -0.43081,1.2233095 -0.76076,1.6705312 -0.32995,0.447222 -0.59991,0.9435968 -0.59991,1.1030553 0,0.1594585 -0.27251,0.5839762 -0.60559,0.9433732 -0.33308,0.3593967 -0.67396,0.8688367 -0.75751,1.1320885 -0.0836,0.2632517 -0.66767,1.4200024 -1.29803,2.5705566 -2.20905,4.03201368 -3.83887,7.2534883 -3.83887,7.5878436 0,0.1855737 -0.0844,0.3749067 -0.1875,0.4207402 -0.24347,0.1082103 -2.0625,2.8885077 -2.0625,3.1524352 0,0.1109867 -0.50625,0.6986407 -1.125,1.305898 -0.61875,0.6072574 -1.125,1.0428322 -1.125,0.9679452 0,-0.07489 1.22409,-2.175614 2.72019,-4.6682801 1.49611,-2.4926665 4.48431,-8.0112173 6.64046,-12.2634467 3.55648,-7.0138942 3.97102,-7.7196672 4.46731,-7.6056812 0.30087,0.06911 0.78922,0.410493 1.08521,0.75864 0.71193,0.837379 1.22722,0.596657 1.42941,-0.667755 0.1276,-0.797964 0.27207,-1.021422 0.66038,-1.021422 0.27337,0 0.49704,-0.1125 0.49704,-0.25 0,-0.1375 0.225,-0.25 0.5,-0.25 0.62804,0 0.6268,0.02061 -0.11137,1.855385 -0.8474,2.106294 -2.12846,4.4064052 -2.54269,4.5653632 -0.19027,0.073011 -0.34594,0.417686 -0.34594,0.7659453 0,0.6141657 -2.62142,6.6741401 -3.5421,8.18830651 -0.25081,0.41249999 -0.45645,0.99674573 -0.45696,1.29832397 -5e-4,0.30157822 -0.2315,0.70981822 -0.5133,0.90720022 -0.38853,0.2721347 -0.47262,0.5172647 -0.3479,1.014176 0.0951,0.3789002 0.0593,0.6552997 -0.0848,0.6552997 -0.13711,0 -0.31881,0.365625 -0.4038,0.8125 -0.085,0.446875 -0.94963,2.4977947 -1.92142,4.5575991 -1.07833,2.285598 -1.82194,4.209791 -1.90813,4.937501 -0.0777,0.65582 -0.23805,1.1924 -0.3564,1.1924 -0.11835,0 -0.21518,0.211225 -0.21518,0.46939 0,0.258162 -0.16875,0.609437 -0.375,0.78061 -0.20625,0.171172 -0.375,0.461585 -0.375,0.64536 0,0.539815 -3.70393,7.886227 -4.26898,8.467139 -0.12706,0.130625 -0.23102,0.394075 -0.23102,0.585443 0,0.573582 -3.08291,7.08975 -5.02703,10.62533 -2.34276,4.260567 -3.13867,5.426727 -3.70373,5.426727 -0.3175,0 -0.45674,0.185922 -0.45674,0.609885 0,0.69452 -1.5731,3.701707 -2.4273,4.640115 -0.31291,0.34375 -0.88657,1.1875 -1.2748,1.875 -0.38823,0.6875 -1.20723,1.896875 -1.82001,2.6875 -0.88335,1.139717 -1.2585,1.4375 -1.81099,1.4375 -1.01149,0 -1.9794,0.427867 -1.9794,0.875 0,0.213057 -0.28125,0.494307 -0.625,0.625 -0.34375,0.130692 -0.625,0.40252 -0.625,0.604057 0,0.579435 -0.50281,0.737658 -0.84725,0.266608 -0.29188,-0.399168 -0.36905,-0.40093 -1.09595,-0.02503 -0.93466,0.483332 -0.88219,0.478975 -1.2568,0.10437 z"
         id="path28395"
         transform="matrix(0.26458333,0,0,0.26458333,5.2916565,5.2916565)"
         inkscape:label="k"
         inkscape:connector-curvature="0" />
      <path
         id="path28590"
         style="display:inline;fill:#ffffff;fill-opacity:1;stroke:#000000;stroke-width:5.09820986;stroke-opacity:0"
         inkscape:label="k"
         transform="matrix(0.49371314,0,0,0.5185253,-320.6201,-187.51047)"
         d="m 512.51068,291.84902 c -0.0397,0.0132 -0.0839,-0.003 -0.13086,0.0137 -0.0855,0.0312 -0.29645,0.0379 -0.47266,0.0566 0.0446,0.48999 0.0973,0.98125 -0.0391,1.44531 -1.366,4.64934 -2.82227,7.11023 -4.87305,11.2832 -0.51619,1.05036 -1.02573,2.10375 -1.53711,3.15625 0.89688,0.82076 1.88658,1.72358 2.88868,2.5625 1.51102,1.265 3.0101,2.57368 3.33203,2.90821 0.32193,0.33453 1.0683,1.02533 1.6582,1.53515 0.5899,0.50982 -6.49505,-3.07526 -6.49505,-2.93886 0,0.13641 0.1903,0.32784 0.42382,0.42579 0.23357,0.0979 0.59728,0.42989 0.80665,0.73828 0.5092,0.75002 2.40358,2.10094 3.71679,2.65039 0.84753,0.3546 1.10738,0.56558 1.2793,1.03515 0.11862,0.324 0.21484,0.61755 0.21484,0.65235 0,0.17187 -0.59482,-0.022 -1.78906,-0.58008 -0.88715,-0.4148 -1.35979,-0.54883 -1.44726,-0.41406 -0.0798,0.12289 -0.57727,-0.23354 -1.28907,-0.92188 -0.63722,-0.61622 -1.1582,-1.15408 -1.1582,-1.19531 0,-0.13751 -1.21186,-4.25644 -1.35846,-4.25646 -0.0794,0 -0.10184,0.3037 -0.0488,0.67579 0.0905,0.63654 0.0783,0.65589 -0.19336,0.3164 -0.15881,-0.19844 -0.48335,-0.63634 -0.72266,-0.97265 -0.0786,-0.11056 -0.35639,-0.41397 -0.57812,-0.66211 -0.14819,0.30481 -0.29684,0.60935 -0.44531,0.91406 -0.38616,0.80451 -0.62671,1.31532 -0.86719,1.82227 -0.0312,0.3351 -0.22167,0.60048 -0.32813,0.9082 -0.0106,0.031 0.0691,-0.1012 0.0703,-0.0684 0.003,0.0854 -0.036,0.16866 -0.0625,0.25 -0.11037,0.34047 -0.23201,0.67686 -0.34766,1.01562 -0.28135,0.59796 -0.42012,1.21058 -0.46094,1.86133 -0.008,0.12136 0.0183,0.24744 -0.0195,0.36328 -0.17068,0.53332 -0.39967,1.04728 -0.59961,1.57032 -0.17922,0.25125 -0.38479,0.48548 -0.53711,0.7539 -0.1062,0.1872 0.0952,0.0424 0.0801,0.13867 -0.0355,0.22313 -0.093,0.44124 -0.14062,0.66211 -0.15534,0.72108 -0.0583,0.34293 -0.4336,1.3125 -0.44734,0.77643 -0.26007,0.52335 -1.03711,1.38867 -0.15405,0.17147 -0.37168,0.29202 -0.48242,0.49415 -0.0548,0.10012 0.0405,0.22848 0.0254,0.34179 -0.0355,0.29852 -0.13893,0.58523 -0.19336,0.88086 9.1e-4,-0.28772 0.042,-1.14844 0.004,-0.86328 -0.0673,0.50088 -0.0383,1.01093 -0.0899,1.51367 -0.008,0.0742 -0.28401,1.36259 -0.2871,1.37696 -0.031,0.14553 -0.0387,0.29932 -0.0937,0.4375 -0.1725,0.4312 -0.39092,0.8422 -0.58594,1.26367 -0.28998,0.4366 -0.37123,0.52794 -0.5,0.76562 0.0153,0.28641 0.0328,0.57297 0.0488,0.85938 -0.01,0.60785 -0.25533,1.15507 -0.44922,1.71679 -0.0514,0.14911 -0.0682,0.30907 -0.12305,0.45704 -0.0934,0.25193 -0.19905,0.50062 -0.29883,0.75 -0.18561,0.36882 -0.38843,0.76851 -0.47461,1.17773 -0.13077,0.62027 0.0427,0.2187 -0.0703,0.81055 -0.0627,0.32763 -0.15374,0.64803 -0.23047,0.97265 -0.22692,0.66883 -0.55285,1.29874 -0.82422,1.94922 -0.15609,0.3778 -0.1478,0.24306 -0.1289,0.43555 0.0415,0.57917 -0.36728,1.04612 -0.49805,1.57422 -0.006,0.0254 0.0534,0.009 0.0723,0.0273 0.0151,0.018 0.031,0.0477 0.0234,0.0723 -0.11618,0.4748 -0.25979,0.94263 -0.38867,1.41406 -0.6658,0.99515 -1.08328,2.12561 -1.64844,3.17383 -0.22065,0.40927 -0.45928,0.80883 -0.68945,1.21289 -0.57589,0.91898 -1.14536,1.84118 -1.72461,2.75781 -0.0518,0.0779 -0.10976,0.15116 -0.15625,0.23242 -0.0745,0.13033 -0.11764,0.27638 -0.18945,0.40821 -0.19967,0.36669 -0.43993,0.70536 -0.62891,1.07617 -0.13646,0.20269 -0.13468,0.4536 -0.19531,0.68554 0.69417,0.20257 1.55146,0.51282 2.69141,0.98438 0.88577,0.36642 1.82346,0.75072 2.08398,0.85547 0.26052,0.10475 0.60149,0.26245 0.75781,0.34961 0.8594,0.47916 4.45955,1.98831 5.58985,2.34375 0.41683,0.13108 1.0111,0.40536 1.32226,0.60742 0.31116,0.20206 0.76817,0.46796 1.01563,0.5918 0.24745,0.12383 0.71775,0.43634 1.04492,0.69336 1.18162,0.92825 4.3423,2.96093 4.60351,2.96093 0.14701,0 0.31595,0.11911 0.375,0.26563 0.10359,0.25704 -6.11447,-2.84841 -4.94036,-2.1498 0.31262,0.18602 0.82409,0.56415 1.13672,0.83985 1.16965,1.03148 3.083,2.51765 5.10351,3.96484 0.34633,0.24806 1.01001,0.75487 1.47656,1.12695 0.46656,0.37209 0.89632,0.67774 0.95508,0.67774 0.0588,0 0.61858,0.50681 1.24414,1.12695 0.62557,0.62014 1.49743,1.33007 1.93555,1.57813 0.43812,0.24801 1.05399,0.6744 1.36914,0.94726 0.38578,0.33402 0.77948,0.49609 1.20703,0.49609 0.61458,0 0.83395,0.22248 0.44531,0.45118 -0.31176,0.18346 -0.21379,0.96738 0.14258,1.14257 0.51166,0.25154 1.75391,0.42741 1.75391,0.24805 0,-0.23164 1.22549,-0.54423 2.69336,-0.68555 0.88072,-0.0848 1.37046,-0.2261 1.59179,-0.45898 0.17596,-0.18508 0.54208,-0.33543 0.8125,-0.33398 0.37853,0.002 0.4263,0.0422 0.21094,0.17187 -0.17563,0.10575 1.3756,0.13588 4.16797,0.082 4.82829,-0.0929 6.17117,-0.16209 6.66016,-0.3457 0.24461,-0.0919 0.33164,-0.005 0.3789,0.38281 l 0.0625,0.50391 4.16797,0.76367 c 2.2926,0.41967 4.31763,0.76734 4.5,0.77344 0.50719,0.0169 0.40117,-0.26978 -0.3789,-1.01953 -0.39112,-0.37592 -0.92544,-0.98629 -1.18555,-1.35547 -0.36644,-0.5201 -0.85639,-0.83934 -2.17773,-1.41993 -0.93799,-0.41208 -1.81034,-0.82961 -1.93946,-0.92773 -0.41795,-0.31764 -0.0587,-0.48184 0.47461,-0.2168 0.5963,0.29635 1.6254,0.50894 1.95508,0.4043 0.12403,-0.0394 -0.34162,-0.33598 -1.0332,-0.66016 -1.22406,-0.57376 -1.4896,-0.8239 -1.03321,-0.96875 0.32881,-0.10435 0.003,-0.5 -0.41211,-0.5 -0.19612,0 -0.4102,-0.0805 -0.47461,-0.17968 -0.15736,-0.24244 -1.29035,-0.22969 -1.86914,0.0215 -0.25659,0.11132 -0.51039,0.36374 -0.56445,0.56055 -0.14693,0.535 -0.60364,0.27202 -0.55664,-0.32031 0.0761,-0.95942 0.12311,-0.98438 1.86133,-0.98438 1.19625,0 1.70548,-0.0709 1.91406,-0.26953 0.40093,-0.38175 0.61903,-0.33803 0.82031,0.16601 0.097,0.24293 0.36,0.46336 0.5918,0.4961 0.22944,0.0324 0.51014,0.20501 0.625,0.38281 0.17053,0.26401 0.12315,0.38669 -0.26367,0.67188 -0.59205,0.43648 -0.10382,0.49645 0.54101,0.0664 0.41945,-0.27973 0.45836,-0.26856 0.97852,0.31446 0.2978,0.33379 0.69261,0.87092 0.87891,1.19335 0.25083,0.43419 0.46973,0.58594 0.84375,0.58594 0.53729,0 0.73632,0.27753 0.73632,1.0293 0,0.25177 0.28453,0.9159 0.63282,1.47461 0.34828,0.5587 0.72694,1.25897 0.84179,1.55664 0.32256,0.83599 1.51564,4.96294 1.66797,5.77148 0.0748,0.39689 0.42889,1.4527 0.78711,2.34571 0.35822,0.893 0.98999,2.58926 1.4043,3.76953 0.94699,2.69774 2.60856,5.87233 3.68945,7.04883 0.92083,1.00226 0.95974,1.09344 0.53125,1.25 -0.18541,0.0677 -0.6348,-0.1562 -1.18555,-0.58985 -1.05484,-0.83055 -2.80727,-1.7623 -4.80273,-2.55273 l -2.21909,-0.69092 c -2.53476,-0.39656 -3.9405,0.097 -5.50499,0.59445 -0.85191,0.26809 -2.61355,1.79787 -2.73834,1.94104 -1.25292,0.75775 -2.84041,2.44391 -3.65477,3.72379 -0.37468,0.43433 -2.37675,2.5822 -2.54789,2.87865 6.64359,-0.49225 5.48825,-1.27693 10.82524,-4.55053 2.43296,-0.84725 2.66136,-0.88204 4.44336,-0.65625 1.95088,0.24719 5.51134,1.31337 6.07812,1.82031 0.2186,0.19554 0.46387,0.35547 0.54492,0.35547 0.0811,0 0.36168,0.16216 0.625,0.35938 l 1.08535,0.86296 0.93678,-0.69767 c 0.59406,-0.71175 -0.34463,-1.43786 -0.65689,-1.99342 -0.26352,-0.46883 -0.12006,-0.59879 0.35156,-0.31836 0.20476,0.12175 0.51152,0.16958 0.68164,0.10743 1.22256,-2.1639 -0.56079,-3.45755 -1.56835,-4.52539 -0.75061,-1.04708 -1.16055,-1.62513 -1.60975,-3.02841 -0.36856,-1.15136 -0.57968,-2.59031 -0.90001,-3.48331 -0.32039,-0.89301 -0.64736,-1.90858 -0.72657,-2.25586 -0.0792,-0.34728 -0.36457,-1.09177 -0.63281,-1.6543 -0.62568,-1.31214 -1.00368,-2.77804 -1.1543,-4.47461 -0.0659,-0.742 -0.20341,-1.42896 -0.30468,-1.52539 -0.29447,-0.28037 -0.21253,-0.72028 0.17578,-0.95117 0.43066,-0.25609 1.45108,-1.91337 1.64453,-2.66992 0.0761,-0.29767 0.1957,-0.58125 0.26562,-0.63086 0.21176,-0.15026 1.12116,-3.07996 1.34375,-4.32813 0.24654,-1.38243 0.31974,-1.52618 0.64453,-1.26953 0.19308,0.15257 0.33081,-0.10676 0.64649,-1.2207 0.46384,-1.63674 0.48223,-1.87237 0.17383,-2.16602 -0.1759,-0.16747 -0.1536,-0.26704 0.0996,-0.44336 0.52998,-0.36899 0.92393,-2.05737 0.99804,-4.2832 0.038,-1.14106 0.16206,-2.63778 0.27539,-3.32617 0.35861,-2.17809 0.0531,-11.46467 -0.43945,-13.36524 -0.22306,-0.86066 -0.28547,-0.92308 -1.46484,-1.48828 -1.26273,-0.60515 -5.04271,-3.77129 -5.66407,-4.74414 -0.53314,-0.83473 -3.74147,-3.95703 -4.0664,-3.95703 -0.19023,0 -0.31055,-0.14792 -0.31055,-0.38281 0,-0.45992 -0.88383,-2.42006 -1.36328,-3.02344 -0.18803,-0.23663 -0.3418,-0.6196 -0.3418,-0.84961 0,-0.523 -0.37957,-1.33594 -0.62304,-1.33594 -0.10251,0 -0.13277,-0.24139 -0.0684,-0.54882 0.0826,-0.39311 0.0355,-0.57682 -0.16602,-0.65039 -0.18357,-0.0671 -0.28365,-0.36119 -0.28906,-0.84961 -0.005,-0.41108 -0.13108,-1.07187 -0.28125,-1.46875 -0.15017,-0.3969 -0.27378,-0.99004 -0.27539,-1.31836 -0.002,-0.35148 -0.0798,-0.55198 -0.19141,-0.48633 -0.11119,0.0654 -0.18945,-0.12701 -0.18945,-0.46485 0,-0.31661 -0.17632,-0.84561 -0.39063,-1.17578 -0.26438,-0.40731 -0.44706,-1.13816 -0.57031,-2.27539 -0.31742,-2.92892 -0.89063,-5.68622 -1.2793,-6.1582 -0.0942,-0.11441 -0.22646,-0.43222 -0.29492,-0.70508 -0.0684,-0.27286 -0.23546,-0.49609 -0.36914,-0.49609 -0.14793,0 -0.25025,-0.24802 -0.26172,-0.63282 -0.0386,-1.29842 -1.08468,-3.19645 -1.34765,-2.44531 -0.0367,0.10491 -0.23362,0.19141 -0.4375,0.19141 -0.20389,0 -0.70475,0.16288 -1.11328,0.36133 -0.40854,0.19844 -0.89537,0.36131 -1.08204,0.36133 -0.18666,0 -1.31932,0.607 -2.51757,1.3496 -2.69153,1.66806 -4.09837,2.38564 -4.29883,2.19141 -0.20205,-0.19576 0.89219,-1.06526 2.31055,-1.83594 l 1.13671,-0.61718 -0.66406,0.002 c -0.36473,0.002 -1.17552,0.12486 -1.80078,0.27148 -1.44855,0.33967 -4.94569,0.52276 -5.11133,0.26758 -0.0665,-0.1024 -0.43568,-0.18591 -0.82031,-0.18555 -0.38464,4.4e-4 -1.42282,-0.21042 -2.30859,-0.46875 -0.88578,-0.25833 -1.82542,-0.52913 -2.08594,-0.60156 -0.26053,-0.0724 -0.56787,-0.31024 -0.6836,-0.5293 -0.11572,-0.21901 -0.49834,-0.54508 -0.85156,-0.7246 -1.81056,-0.92025 -2.59819,-1.39218 -3.20117,-1.91602 -0.36473,-0.31686 -0.98074,-0.75602 -1.36914,-0.97656 -1.68356,-0.95598 3.55094,-0.007 2.97943,-2.10997 -0.1594,-0.58645 -0.62583,-1.55984 -1.03711,-2.16406 -0.41128,-0.60423 -0.80704,-1.32669 -0.87891,-1.60547 -0.0666,-0.25827 -0.15816,-0.45964 -0.27734,-0.41992 z m 19.33307,17.67442 c 0.0935,0.0263 0.2063,0.19172 0.34961,0.5 0.19411,0.41752 0.19779,0.77387 0.0215,1.73828 -0.27783,1.51908 -0.13628,3.09462 0.36719,4.09375 0.21321,0.42311 0.64726,1.44302 0.96485,2.26758 0.7245,1.88129 0.90449,2.19922 1.24218,2.19922 0.14898,0 0.36112,0.16288 0.47266,0.36132 0.16187,0.28798 0.14431,0.35938 -0.0879,0.35938 -0.31585,0 -0.40322,0.63487 -0.11133,0.80664 0.0982,0.0578 0.23629,0.46938 0.30664,0.91601 0.10384,0.65935 0.17657,0.77544 0.38672,0.60938 0.34612,-0.27351 0.62891,0.4338 0.77734,1.94727 0.0739,0.75364 0.19214,1.13476 0.35547,1.13476 0.33169,0 0.50448,0.2993 0.66992,1.16602 0.0765,0.40052 0.23824,1.05233 0.35938,1.44922 0.12113,0.39689 0.29172,1.27251 0.38086,1.94531 0.0891,0.6728 0.20719,1.36261 0.26172,1.5332 0.41271,1.29119 0.71296,4.88522 0.85156,10.1836 l 0.1582,6.00195 1.06641,2.49414 c 0.58703,1.37233 1.06826,2.59103 1.06836,2.70703 10e-5,0.116 0.29728,0.7781 0.66015,1.47266 0.36288,0.69455 0.66051,1.36425 0.66211,1.48828 0.002,0.12403 -0.10671,0.22656 -0.24218,0.22656 -0.30351,0 -0.70118,-0.36263 -0.70118,-0.63867 0,-0.11254 -0.32285,-0.64427 -0.71679,-1.18164 -0.8422,-1.14885 -1.55664,-2.41939 -1.55664,-2.76758 0,-0.1357 -0.24657,-0.69079 -0.54688,-1.23438 -1.02311,-1.85188 -1.04451,-2.01422 -0.78125,-5.89062 0.1869,-2.75189 0.19143,-4.10793 0.0195,-6.14649 -0.24563,-2.91496 -0.57368,-5.05273 -0.77539,-5.05273 -0.0731,0 -0.19385,0.83258 -0.26758,1.84961 -0.49196,6.78652 -0.60244,8.05909 -0.71679,8.16797 -0.31401,0.29898 -0.34434,-1.43326 -0.10157,-6.01172 0.24223,-4.5674 0.23781,-5.03063 -0.0684,-6.37305 -0.18147,-0.79618 -0.46809,-1.59406 -0.63672,-1.77148 -0.1942,-0.20432 -0.38208,-0.94313 -0.51367,-2.01563 -0.11432,-0.93132 -0.35925,-2.06328 -0.54493,-2.51562 -0.18568,-0.45234 -0.39998,-1.22262 -0.47461,-1.71289 -0.0746,-0.49028 -0.20023,-0.97304 -0.27929,-1.07227 -0.0791,-0.0992 -0.46054,-0.99215 -0.84766,-1.98437 -1.87436,-4.80419 -1.95072,-4.95035 -3.18945,-6.13867 -1.87263,-1.79644 -3.95492,-2.67959 -7.41406,-3.14063 -1.46213,-0.19487 -1.8086,-0.0708 -1.8086,0.64258 0,0.55679 -0.15689,0.54079 -1.05664,-0.10742 -0.40935,-0.29491 -0.85021,-0.53847 -0.98047,-0.54102 -0.28718,-0.006 -0.32182,-0.72656 -0.0352,-0.72656 0.11307,0 0.15225,-0.15249 0.0879,-0.3457 -0.16128,-0.48381 0.075,-0.56388 1.04687,-0.34961 0.46333,0.10215 1.65259,0.20736 2.64258,0.23242 2.22561,0.0564 4.34063,0.6703 5.92187,1.7207 0.60031,0.39877 1.16305,0.72656 1.25,0.72656 0.30401,0 0.74417,-0.6375 0.87305,-1.26367 0.22361,-1.08634 0.30789,-1.26367 0.60547,-1.26367 0.15905,0 0.33416,-0.16097 0.38867,-0.35937 0.0683,-0.24884 0.14286,-0.36219 0.23633,-0.33594 z m -20.75885,7.67714 c -0.26992,0 -6.29174,-3.30853 -4.53412,-1.67714 2.96473,2.75179 3.10853,2.88185 4.26758,3.93554 0.46736,0.42488 1.73878,1.60587 2.82617,2.62305 1.79537,1.67946 2.00553,1.82412 2.29102,1.57813 0.45607,-0.393 0.50091,-0.35789 0.75,0.58398 0.12428,0.46995 0.34803,0.97676 0.49609,1.12695 0.61282,0.62165 1.2168,1.42087 1.2168,1.60743 0,0.1097 0.0761,0.19921 0.16797,0.19921 0.0918,0 0.25842,0.3494 0.37109,0.77539 0.11524,0.43578 0.71499,1.44062 1.37109,2.29883 1.09515,1.43252 1.69141,2.44397 1.69141,2.87305 0,0.5138 -0.9686,-0.0526 -2.2832,-1.33594 -0.48967,-0.47801 -0.7688,-0.94244 -0.85352,-1.41992 -0.0805,-0.45391 -0.24488,-0.73868 -0.45508,-0.79102 -0.18075,-0.045 -0.44201,-0.36139 -0.58203,-0.70117 -0.14002,-0.33978 -0.35881,-0.61718 -0.48437,-0.61718 -0.12557,0 -0.27911,-0.183 -0.3418,-0.40625 -0.0627,-0.22325 -0.45584,-0.6439 -0.87305,-0.93555 -0.4172,-0.29165 -1.2481,-1.17725 -1.84765,-1.96875 -1.16355,-1.53608 -2.66158,-3.18359 -2.89453,-3.1836 -0.0778,0 -0.18885,0.17048 -0.2461,0.37891 -0.16779,0.61093 -0.49202,0.21418 -0.37695,-0.46094 0.0996,-0.58448 0.0542,-0.64539 -0.8711,-1.1875 -0.66856,-0.39169 -1.06575,-0.77806 -1.26171,-1.22461 -0.39424,-0.89838 3.59382,-0.12709 2.69622,-0.43614 -0.7864,-0.27075 -0.80318,-0.30355 -0.42773,-0.77539 0.14581,-0.18328 0.21821,-0.44679 0.16211,-0.58593 -0.0729,-0.18102 0.11537,-0.27344 0.0254,-0.27344 z m -13.76953,11.36718 c 0.06,0 -0.0578,0.10974 -0.0977,0.19141 -0.0299,0.0609 -0.10838,0.24847 -0.0781,0.1875 0.0606,-0.12538 0.0499,-0.37891 0.17578,-0.37891 z m 46.34869,1.68224 c 0.19584,0.0399 0.47341,0.24728 0.7168,0.58008 0.23583,0.32247 0.86582,1.07459 1.40039,1.66992 1.35968,1.51425 1.81224,2.28737 1.75195,2.99023 -0.0428,0.49919 0.0537,0.65854 0.61328,1.02149 0.36474,0.23656 0.69625,0.5184 0.73633,0.62695 0.28708,0.77735 2.26343,2.95811 2.47657,2.73242 0.2439,-0.25831 0.57617,-1.35057 0.57617,-1.89257 0,-0.55069 0.47854,-0.78616 1.35547,-0.66797 0.36095,0.0487 0.45543,0.18499 0.50195,0.71484 0.0362,0.41263 -0.0507,0.75685 -0.23633,0.93359 -0.16183,0.15409 -0.29492,0.33823 -0.29492,0.41016 0,0.0719 -0.22224,0.57971 -0.49414,1.12695 -0.62071,1.2493 -0.81449,2.56959 -0.5918,4.03321 0.0953,0.62646 0.19421,1.95113 0.21875,2.94336 0.0581,2.35046 0.28009,3.70262 0.62891,3.83007 0.18827,0.0688 0.24124,0.25813 0.16992,0.59766 -0.1,0.47605 0.0787,1.79443 0.35937,2.6543 0.1003,0.30731 0.0577,0.40625 -0.17773,0.40625 -0.17104,0 -0.41143,0.22323 -0.5332,0.49609 -0.21996,0.49287 -0.22261,0.49011 -0.33399,-0.31641 -0.0802,-0.58045 -0.14089,-0.16912 -0.21484,1.44336 -0.0744,1.62347 -0.19976,2.45706 -0.44727,2.97657 -0.25354,0.53219 -0.35123,1.21823 -0.37304,2.61523 -0.0185,1.18534 -0.12363,2.05789 -0.28125,2.33203 -0.17812,0.30984 -0.22135,0.85833 -0.14844,1.8711 0.0938,1.30375 0.0703,1.4393 -0.25977,1.52148 -0.42893,0.1068 -0.48668,0.41016 -0.0781,0.41016 0.48509,0 0.31286,0.33654 -0.33203,0.65039 -0.33868,0.16482 -0.68424,0.41148 -0.76758,0.54687 -0.4201,0.68252 -1.20617,-0.38571 -0.96289,-1.30859 0.0893,-0.33881 0.0377,-0.42969 -0.24414,-0.42969 -0.19653,0 -0.5469,0.12626 -0.7793,0.28125 -0.38305,0.25546 -0.43416,0.25546 -0.53711,0 -0.16494,-0.40926 0.0611,-0.84287 0.49609,-0.95117 0.20793,-0.0518 0.37891,-0.20649 0.37891,-0.34375 0,-0.13726 0.1687,-0.25 0.375,-0.25 0.78092,0 1.41191,-1.92111 1.63086,-4.96094 l 0.0918,-1.26367 -0.28907,0.72266 c -0.15851,0.39689 -0.2894,0.74082 -0.29101,0.76562 -0.002,0.0248 -0.1181,0.0449 -0.25977,0.0449 -0.14167,0 -0.58871,0.42152 -0.99414,0.93555 -1.39699,1.77122 -1.64109,1.15805 -0.46484,-1.16992 0.96054,-1.90106 1.20379,-2.56689 2.05273,-5.62696 l 0.70118,-2.52734 -0.0352,-3.61719 c -0.0475,-5.07556 -0.50809,-8.76849 -1.19336,-9.55468 -0.11028,-0.12653 -0.44203,-0.70481 -0.73828,-1.28711 -0.29625,-0.5823 -0.83146,-1.4239 -1.1875,-1.86914 -0.92682,-1.15901 -0.94551,-1.20548 -0.64844,-1.48828 0.39113,-0.37242 0.068,-0.83352 -0.35156,-0.50196 -0.36823,0.29098 -0.31775,0.3376 -1.07031,-0.98633 -1.26329,-2.22239 -1.875,-3.41176 -1.875,-3.64062 0,-0.10889 0.0326,-0.17911 0.0898,-0.21289 0.043,-0.0253 0.0988,-0.0309 0.16406,-0.0176 z m -41.10846,10.78456 c 0,0.57312 0.79812,0.13778 1.26563,0.62696 0.37873,0.39624 0.85067,0.67343 1.27929,0.75 0.37366,0.0667 0.93346,0.26931 1.24414,0.44921 0.31069,0.1799 0.61474,0.25119 0.67383,0.16016 0.0591,-0.091 0.53071,0.15605 1.04883,0.54687 0.51812,0.39088 1.07025,0.71038 1.22656,0.71094 0.41376,10e-4 -5.5647,-3.5823 -4.22552,-2.99745 0.64015,0.27957 1.23686,0.51148 1.32617,0.51367 0.0893,0.002 0.3762,0.15972 0.63672,0.35156 0.40457,0.29792 0.44076,0.40184 0.24609,0.70313 -0.25666,0.39724 -0.018,0.56445 0.80274,0.56445 0.24691,0 0.94259,0.13046 1.54687,0.29102 0.60429,0.16055 1.66479,0.43487 2.35743,0.60937 0.69259,0.17451 1.35223,0.3732 1.46484,0.43946 0.1126,0.0663 1.63489,0.23607 3.38281,0.3789 1.74793,0.14284 3.85969,0.38592 4.69336,0.53907 0.83368,0.15309 2.50075,0.3481 3.70313,0.43359 2.18098,0.15507 2.18913,0.1564 3.63671,1.03125 0.79806,0.4823 1.45537,0.93925 1.46094,1.01367 0.0143,0.19034 -0.70441,0.16825 -0.83008,-0.0254 -0.057,-0.0878 -0.49257,-0.21521 -0.96875,-0.2832 -0.47617,-0.068 -1.55821,-0.32138 -2.40429,-0.5625 -0.84609,-0.24113 -2.01291,-0.43806 -2.59375,-0.4375 -0.58084,4.9e-4 -1.43927,-0.11608 -1.90821,-0.25977 -0.99928,-0.30619 -2.45226,-0.51344 -6.34765,-0.9082 -1.56314,-0.15841 -3.65259,-0.41208 -4.64258,-0.5625 -1.71061,-0.25991 -2.18777,-0.38098 -3.50586,-0.88867 -0.31263,-0.12042 -1.23622,-0.40794 -2.05469,-0.64063 -1.14104,-0.32439 -1.52621,-0.51911 -1.65039,-0.83008 -0.0891,-0.22305 7.08154,3.55593 6.68646,3.36855 -1.02417,-0.48575 -3.50735,-1.85747 -3.84375,-2.12305 -0.15631,-0.12341 -0.64695,-0.31545 -1.08984,-0.42773 -0.44289,-0.11228 -0.80664,-0.27014 -0.80664,-0.34961 0,-0.24422 -0.9278,-0.5625 -1.63867,-0.5625 -0.37084,0 -1.19231,0.1288 -1.82618,0.28515 -1.13793,0.28076 -1.15769,0.27844 -1.47265,-0.11914 -0.2925,-0.36922 -0.42607,-0.39414 -1.6211,-0.29687 -0.71677,0.0583 -1.71275,0.2802 -2.21289,0.49219 -1.37337,0.5821 -2.51803,0.21602 -2.37304,-0.75782 0.0568,-0.38145 0.17889,-0.42343 1.48242,-0.51367 0.78157,-0.0541 1.5846,-0.18657 1.78516,-0.29492 0.2336,-0.12623 0.54079,-0.14006 0.85351,-0.0371 0.26842,0.0883 1.32655,0.27186 2.35156,0.40625 1.56925,0.20573 1.87537,0.20445 1.94141,-0.002 0.0431,-0.13469 0.11915,-0.36679 0.16797,-0.51563 0.0568,-0.17303 0.75195,-0.74008 0.75195,-0.26953 z m 11.15729,12.87169 c 0.10646,-0.0497 0.40245,0.13766 1.07227,0.64844 1.69935,1.29585 4.24858,2.75622 5.58593,3.20117 1.46658,0.48794 2.72702,1.29468 3.63086,2.32422 0.44069,0.50197 1.03227,0.91564 1.66211,1.16015 1.15468,0.44826 4.9556,1.29688 5.8086,1.29688 0.46527,0 0.58234,0.0699 0.5332,0.31641 -0.0451,0.22634 -0.30401,0.34154 -0.91406,0.41015 -0.69141,0.0778 -0.49459,0.12167 1.04492,0.23242 3.22005,0.23166 3.88281,0.32997 3.88281,0.57422 0,0.34013 -0.64411,0.44647 -2.73047,0.44922 -1.91399,0.003 -4.22995,-0.31784 -6.69726,-0.92383 -0.75668,-0.18584 -1.53948,-0.33789 -1.74024,-0.33789 -0.20077,0 -0.98799,0.32521 -1.75,0.72071 -2.10275,1.09136 -2.33848,0.97013 -1.07422,-0.55274 l 0.78711,-0.94726 -0.74804,-0.64844 c -0.41142,-0.35591 -1.5409,-1.29607 -2.50977,-2.08985 -0.96887,-0.79378 -2.12039,-1.76717 -2.55859,-2.16406 -0.4382,-0.39689 -1.11598,-0.95266 -1.50782,-1.23437 -0.85117,-0.61195 -1.82812,-1.8462 -1.82812,-2.31055 0,-0.0662 0.0153,-0.10843 0.0508,-0.125 z"
         sodipodi:nodetypes="scccscssssssssscsssscssccccccccccscccsscccccccccssccccccccccsccssccssssssssssssssssssssssssscscccssssssssssssssssssssssssssssssssscccccccssscccssccsssssssssssssssssssssssscscscsssssssssssssscccsssssssssssssssscsssssssssssssscccsscsssssscsssscsssssssssscscssssssssssssssssssssssssssssssssssssssssccsssssssssssssssssssssssssssssssssssssssccccssssccsssssssssssssssscscssssssssssssssssssssssssssssssssssssssssssssssssscssscccssssss"
         inkscape:connector-curvature="0" />
      <path
         id="path29499"
         style="display:inline;fill:#ffffff;fill-opacity:1;stroke:#000000;stroke-width:10.19639969;stroke-opacity:0"
         inkscape:label="k"
         transform="matrix(0.49371314,0,0,0.5185253,-320.6201,-187.51047)"
         d="m 555.9043,396.19922 c -0.20064,0.03 -0.50816,0.27805 -0.75586,0.71875 -0.31546,0.56123 -0.27085,1.00178 0.18359,1.86914 0.40273,0.76867 0.46941,1.25594 0.20899,1.50391 -0.52943,0.50409 -0.48178,0.98625 0.0898,0.91992 0.69622,-0.0808 2.17773,0.42406 2.17773,0.74218 0,0.15101 -0.28238,0.49718 -0.6289,0.76954 -0.49118,0.38605 -0.66476,0.39657 -0.78907,0.0449 -0.17055,-0.48249 -1.52433,-0.59931 -2.56054,-0.2207 -0.48441,0.17697 -0.51923,0.29627 -0.14649,0.51562 0.3382,0.19902 0.20451,0.33897 -0.4414,0.45703 -0.51018,0.0933 -2.97359,0.52912 -5.47461,0.96875 -9.85745,1.73277 -19.77236,5.00473 -30.79883,10.16797 -9.69211,4.62377 -13.31998,8.5067 -19.73981,12.12966 -2.21631,1.72104 -15.95134,10.16327 -15.91534,10.6523 0,0 -1.57363,8.60074 0.46289,7.53321 8.27002,-4.33512 29.24645,-21.09787 34.40515,-24.19999 1.36881,-0.82311 2.65145,-1.49804 2.84961,-1.49804 0.19816,0 1.37308,-0.58791 2.61133,-1.30664 4.42192,-2.56668 9.23062,-4.24497 21.15234,-7.38868 8.18956,-2.15952 8.3741,-2.19158 11.66797,-1.94335 3.17593,0.23933 3.3457,0.29644 3.3457,1.09375 0,0.46212 0.16401,1.24709 0.36329,1.74609 0.46787,1.17171 1.01156,5.52456 1.53906,12.31055 0.40008,5.14684 1.61222,11.8324 2.29297,12.64453 0.174,0.20759 0.29034,0.71346 0.25781,1.125 -0.0326,0.41153 0.12546,1.37847 0.35156,2.14843 0.2261,0.76999 0.77178,2.86048 1.21094,4.64649 1.41436,5.75201 4.39363,14.96764 4.83984,14.9707 0.51758,0.003 0.98329,1.01576 0.68164,1.48047 -0.30921,0.47638 3.35342,9.52759 5.90039,14.58008 0.34934,0.69299 0.65881,1.35306 0.98047,2.02539 0.11049,0.0194 0.22113,0.0394 0.33008,0.0645 0.41163,0.096 0.14364,0.0764 0.41992,0.084 0.32099,0.0474 0.64797,0.0516 0.97461,0.0391 0.1586,-0.0907 0.38247,-0.18181 0.73438,-0.30664 0.22647,-0.0801 0.48146,0.0183 0.7207,0.041 0.0442,0.004 0.0842,0.0238 0.12695,0.0352 0.0261,0.008 0.0574,0.006 0.0801,0.0215 0.0318,0.0248 0.0622,0.0511 0.0937,0.0762 0.032,-0.0611 0.0818,-0.23487 0.10742,-0.25977 0.19374,-0.18852 0.35157,-1.13777 0.35157,-2.10937 0,-0.97161 0.23762,-2.60224 0.52734,-3.625 1.03812,-3.66487 2.19109,-9.20743 2.05078,-9.85742 -0.11188,-0.51835 -0.37671,-0.32918 -1.2207,0.87109 -1.04156,1.48125 -1.73633,1.94347 -1.73633,1.1543 0,-0.73488 2.35518,-4.49872 3.28125,-5.24415 0.70193,-0.56498 1.01538,-1.28789 1.24805,-2.88671 0.17069,-1.17303 0.26821,-2.1768 0.21875,-2.23047 -0.0494,-0.0537 -0.79025,0.67637 -1.64649,1.62304 -0.85624,0.94668 -2.15911,2.29205 -2.89648,2.98829 -0.73737,0.69623 -1.3418,1.46651 -1.3418,1.71289 0,0.24638 -0.2134,0.44726 -0.47461,0.44726 -0.26121,0 -0.87636,-1.09606 -1.36719,-2.43554 -1.79614,-4.9018 -2.39,-6.22758 -2.70703,-6.04102 -0.61544,0.36216 -0.66895,0.18687 -5.88672,-19.125 -2.8932,-10.70825 -3.85864,-16.41602 -2.77539,-16.41602 0.23652,0 -0.0192,-0.33675 -0.56836,-0.74804 -0.89379,-0.66942 -1.36962,-1.77735 -0.76367,-1.77735 0.12871,0 1.55911,1.13828 3.17969,2.5293 1.79859,1.54382 3.15952,2.45037 3.49414,2.32813 0.56213,-0.20539 1.28608,0.42471 1.98242,1.72851 0.21656,0.40547 1.50076,1.36863 2.85547,2.14063 1.35472,0.77199 2.80387,1.77031 3.2207,2.21875 0.41684,0.44844 1.84239,1.61923 3.16797,2.60156 1.32558,0.98232 3.03242,2.31303 3.79102,2.95703 0.75859,0.64399 1.49972,1.17281 1.64844,1.17383 0.54183,0.003 4.08789,4.38805 4.08789,5.05469 0,0.8137 -2.45628,1.95149 -5.83985,2.70703 -1.75182,0.39117 -2.60151,0.83869 -3.90234,2.05273 -0.91461,0.8536 -1.89202,1.9887 -2.17188,2.52148 -0.44471,0.84665 -0.43017,1.00079 0.11329,1.22266 0.34198,0.13964 1.13942,0.22063 1.77148,0.18164 1.72212,-0.10617 3.10172,0.53416 3.75781,1.74219 0.44821,0.82525 0.58003,2.21219 0.5586,5.87891 -0.0323,5.51834 -0.36374,8.08643 -1.0293,7.95507 -0.25137,-0.0496 -0.45703,0.28151 -0.45703,0.73438 0,0.45287 -0.25157,1.70984 -0.5586,2.79492 -0.30702,1.08509 -0.97822,3.76046 -1.49023,5.94336 -0.51201,2.1829 -1.12103,4.77926 -1.35547,5.77148 -0.20708,0.87647 -0.35766,1.58834 -0.50976,2.3086 0.0494,0.0411 0.0988,0.0823 0.14843,0.12305 0.3193,0.52118 0.2826,0.39408 0.42774,1.32226 0.0264,0.17632 -0.0229,0.35752 -0.008,0.53516 0.002,0.0194 0.0415,0.008 0.0566,0.0234 0.0189,0.0155 0.0295,0.0359 0.0371,0.0586 0.034,0.0937 0.0577,0.19149 0.0879,0.28711 0.0385,0.23727 0.0544,0.34253 0.0664,0.42383 -0.0112,-0.0913 -0.0207,-0.20136 -0.008,-0.22266 -0.0103,-0.0126 -0.0155,-0.022 -0.004,-0.0117 0.002,0.002 0.004,0.006 0.006,0.008 h 0.002 0.002 c 0.0213,0.007 0.0329,0.0241 0.041,0.0449 0.0786,0.0806 0.15197,0.16724 0.22852,0.25 0.0518,0.0643 0.11543,0.1196 0.15625,0.19141 0.1783,0.31521 0.41039,0.77763 0.45508,1.20703 0.0681,0.16702 0.13981,0.33332 0.18554,0.50782 0.0401,0.15355 -0.008,0.33281 0.0664,0.47265 0.0522,0.0961 -0.0859,-0.27521 0.01,-0.32812 0.0824,-0.0454 0.11115,0.15261 0.16406,0.23047 0.10356,0.15253 0.20421,0.30748 0.30664,0.46093 0.17786,0.27054 0.50157,0.71434 0.45508,1.02539 -0.0229,0.15351 -0.0661,0.30187 -0.11914,0.44727 0.0107,0.0223 0.0166,0.0464 0.0312,0.0684 0.008,0.0113 0.0315,0.0328 0.0312,0.0215 0,-0.0257 -0.0539,-0.0817 -0.0312,-0.0703 0.0359,0.0144 0.0478,0.0596 0.0742,0.0898 0.0257,0.0302 0.0573,0.0558 0.0762,0.0899 0.0469,0.0799 0.0886,0.16265 0.13281,0.24414 1.74156,0.16181 4.24609,0.81797 4.24609,1.25586 0,0.15817 0.7236,0.63576 1.60938,1.0625 0.88577,0.42674 1.76638,1.03108 1.95703,1.34375 0.30322,0.49724 0.38317,0.48048 0.63672,-0.13672 0.44724,-1.08872 0.39419,-7.23136 -0.0781,-9.01758 -0.47142,-1.7826 -0.20305,-3.41406 0.56055,-3.41406 0.2762,0 2.59653,2.19256 5.15625,4.87304 2.55972,2.68051 5.98296,6.01608 7.60938,7.41211 2.75562,2.36529 4.65562,4.19218 11.05859,10.63282 1.38411,1.39225 2.59637,2.94777 2.69336,3.45703 0.097,0.50925 0.44847,1.6898 0.78125,2.62304 0.33278,0.93327 0.60351,2.40046 0.60351,3.26172 0,3.04128 0.34564,3.80144 2.07227,4.57422 1.30581,0.58443 1.73278,1.04704 2.40234,2.59571 1.03719,3.51872 12.76258,6.77581 7.71223,16.21899 -2.03477,1.76324 -3.45882,-1.48573 -3.46613,-1.98267 -0.002,-0.15099 -0.32956,-0.9615 -0.72657,-1.80273 -0.39697,-0.84123 -1.53018,-3.8038 -2.51953,-6.58203 -2.36457,-6.6401 -2.51321,-6.90093 -4.0957,-7.1836 -0.71588,-0.12787 -1.46911,-0.43102 -1.67383,-0.67382 -0.20472,-0.24281 -0.726,-2.44913 -1.1582,-4.9043 -0.4791,-2.72161 -1.02859,-4.71792 -1.40625,-5.11523 -0.37021,-0.3895 -0.52383,-0.93633 -0.38281,-1.35938 0.17848,-0.53545 -0.1363,-0.98858 -1.29102,-1.85938 -0.83959,-0.63312 -2.08154,-1.89093 -2.75976,-2.79492 -1.31655,-1.75481 -9.42762,-8.84122 -9.75391,-8.52148 -0.10707,0.10492 0.61548,0.89193 1.60547,1.74805 1.2624,1.09168 1.80078,1.83543 1.80078,2.49023 0,1.10301 -0.5833,1.24458 -0.86719,0.21094 -0.10901,-0.39689 -0.44136,-0.72071 -0.73828,-0.72071 -0.29692,0 -0.74876,-0.37223 -1.00391,-0.82617 -0.42997,-0.76498 -6.86523,-5.23749 -6.86523,-4.77148 0,0.11497 0.25573,0.79149 0.56836,1.5039 0.31262,0.71243 0.56836,1.57938 0.56836,1.92774 0,0.34835 0.21409,0.8036 0.47461,1.00976 0.26052,0.20616 0.81009,1.20018 1.2207,2.20899 0.41062,1.00881 0.87737,1.83398 1.03711,1.83398 0.15974,0 0.52092,0.52693 0.80469,1.17188 0.28378,0.64494 1.18287,2.12219 1.99609,3.2832 0.81322,1.16102 1.81949,2.62743 2.23633,3.25781 1.50214,2.27173 3.1805,4.40037 4.53711,5.75196 0.76028,0.75746 1.31586,1.5661 1.23437,1.79882 -0.0815,0.23275 0.24878,0.72224 0.73438,1.08594 0.96779,0.72484 1.15018,1.52818 0.41016,1.8125 -0.27382,0.1052 -0.185,0.19451 0.21289,0.21094 0.91446,0.0379 0.74181,1.95268 -0.19141,2.12109 -0.47171,0.0851 -0.70833,-0.2229 -0.89453,-1.16797 -0.13929,-0.70691 -0.41526,-1.2871 -0.61133,-1.2871 -0.19606,0 -0.53636,-0.49032 -0.75586,-1.08985 -0.2195,-0.59952 -0.69902,-1.24248 -1.0664,-1.42969 -0.36741,-0.18721 -0.76752,-0.82012 -0.89063,-1.40625 -0.12311,-0.58612 -0.74307,-1.62705 -1.37695,-2.31445 -0.63389,-0.6874 -1.15235,-1.35717 -1.15235,-1.48828 0,-0.13111 -0.68195,-1.11886 -1.51562,-2.19336 -0.83367,-1.0745 -1.51732,-2.08098 -1.51758,-2.23828 -4.2e-4,-0.25868 -0.37802,-0.72378 -2.63086,-3.2207 -0.38129,-0.4226 -0.90276,-0.83494 -1.1582,-0.91602 -0.25544,-0.0811 -0.51348,-0.57669 -0.57422,-1.10352 -0.14773,-1.28134 -0.5298,-1.8093 -1.14649,-1.58398 -0.35335,0.12911 -0.6952,-0.44406 -1.11718,-1.87109 -0.33433,-1.1306 -0.84687,-2.6238 -1.13868,-3.31836 -0.51413,-1.2239 -0.53186,-1.23117 -0.55078,-0.26953 -0.0178,0.90307 -0.77734,1.49849 -0.77734,0.60937 0,-0.21014 -0.15926,-0.28734 -0.35547,-0.17187 -0.1962,0.11545 -0.42387,-0.48412 -0.50391,-1.33204 l -0.14453,-1.54101 -0.0664,1.67578 c -0.0474,1.19921 0.095,1.73414 0.50195,1.88281 0.66664,0.24358 0.76565,1.54915 0.13281,1.75 -0.4556,0.14461 -0.28169,1.37554 1.1875,8.40235 0.49858,2.38459 0.56482,3.31705 0.24805,3.51172 -0.27678,0.17007 -0.19894,0.26791 0.2168,0.27148 0.4354,0.004 0.79797,0.50861 1.10742,1.53906 0.25327,0.84339 0.57916,1.69413 0.72266,1.89258 0.14347,0.19844 0.37598,1.08293 0.51757,1.96484 0.14159,0.88191 0.92435,2.95946 1.74024,4.61719 1.21938,2.47759 1.38345,3.05187 0.91601,3.22266 -0.31276,0.11427 -0.6205,0.14631 -0.68359,0.0723 -0.0631,-0.0741 -0.54496,-0.74875 -1.07031,-1.5 l -0.95508,-1.36523 -0.23242,1.38867 c -0.29102,1.73285 0.19525,3.40485 1.44336,4.96289 1.14381,1.42786 1.17677,2.02547 0.23046,4.00977 -0.46557,0.97626 -1.44952,2.01583 -2.83203,2.98828 -1.6693,1.17418 -2.12071,1.70028 -2.12109,2.47266 -3.3e-4,0.53944 -0.29966,1.48648 -0.66406,2.10546 -0.97785,1.66098 -3.2238,4.4668 -3.57617,4.4668 -0.16831,0 -0.30663,0.23608 -0.30665,0.52344 3e-5,0.28737 -0.88481,1.53551 -1.96679,2.77344 -1.15382,1.32011 -1.78042,2.30853 -1.51563,2.39257 0.72158,0.22902 0.52586,0.97454 -0.49609,1.88868 -0.52104,0.46607 -0.94727,0.95959 -0.94727,1.09765 0,0.30691 2.59383,0.95609 4.99024,1.24805 0.97303,0.11859 3.01889,0.10455 4.54687,-0.0293 l 2.77735,-0.24219 1.13672,-1.6289 c 0.62525,-0.89556 1.40211,-2.05203 1.7246,-2.57031 0.769,-1.23582 3.67196,-5.53213 4.05079,-5.99415 0.16271,-0.19842 0.9122,-1.90383 1.66601,-3.78906 1.06452,-2.66227 1.34357,-3.82927 1.24414,-5.23047 -0.11806,-1.66383 -0.10301,-1.70634 0.21094,-0.5332 0.18722,0.6996 0.94896,2.2323 1.69141,3.40625 0.74244,1.17396 1.34961,2.28276 1.34961,2.46289 0,0.18013 0.24521,0.83952 0.54492,1.46485 0.29973,0.6253 1.40608,2.9896 2.45898,5.2539 1.05291,2.2643 2.16589,4.38038 2.47266,4.70313 0.30676,0.32275 0.82073,1.18649 1.14258,1.91992 2.48774,3.72607 6.47799,0.24512 7.87915,0.538 -2.6125,-10.59695 -0.39018,-6.65731 0.63583,-4.90803 1.77029,5.15403 2.81292,3.17028 4.36978,1.51456 -0.77356,-4.71298 -1.87223,-8.19218 -3.40234,-10.40234 -1.37104,-1.9804 -3.3618,-5.6576 -3.77735,-6.97461 -0.14446,-0.45787 -0.71151,-0.99489 -1.25976,-1.19336 -0.75786,-0.27435 -0.8729,-0.43474 -0.47656,-0.66797 0.43181,-0.25411 0.43923,-0.49792 0.0391,-1.41797 -0.26577,-0.6109 -0.40163,-1.63384 -0.30274,-2.27539 0.0989,-0.64155 0.0204,-1.71504 -0.17382,-2.38477 -0.43614,-1.50397 -0.29208,-1.6569 1.01953,-1.08789 1.27718,0.55408 2.96105,3.9065 2.61718,5.21094 -0.12937,0.4908 0.0363,1.39844 0.38282,2.09375 0.33637,0.67494 0.50346,1.49579 0.37109,1.82422 -0.15384,0.38173 0.046,0.78774 0.55469,1.12695 0.58032,0.38702 0.78162,0.88293 0.74414,1.83203 -0.0333,0.84242 0.17105,1.45742 0.58008,1.74219 0.3475,0.24194 0.63281,0.55161 0.63281,0.68945 0,0.13785 0.59031,1.99195 2.46309,4.05222 4.15523,3.7078 12.43357,-19.66881 16.45837,-28.2894 3.59786,-8.59116 1.13074,-1.38219 0.1781,-11.63196 -0.23851,-2.29617 0.48589,-11.50634 0.94922,-12.06836 0.17195,-0.20859 0.61473,-1.27378 0.98242,-2.36523 1.00501,-2.98324 2.84071,-5.69623 4.0293,-5.95508 0.90706,-0.19754 0.9698,-0.32054 0.70117,-1.36914 -1.17121,-4.57187 -1.77236,-6.1466 -3.20313,-8.37109 -0.89345,-1.38912 -1.90989,-3.05944 -2.25781,-3.71289 -0.34792,-0.65346 -1.64346,-2.53323 -2.87891,-4.17774 -1.23542,-1.64451 -3.28976,-4.89613 -4.5664,-7.22656 -2.36687,-4.3206 -2.49996,-4.89377 -1.67969,-7.31836 0.23593,-0.69736 0.0985,-0.81617 -1.19141,-1.02148 -3.30599,-0.52625 -6.31335,-2.13237 -9.82617,-5.24805 -1.05932,-0.93956 -2.83638,-2.14862 -3.94922,-2.68555 -1.11283,-0.53693 -2.90819,-1.53397 -3.98828,-2.2168 -1.76125,-1.11343 -2.06622,-1.19733 -2.96679,-0.80664 -1.29147,0.56028 -1.69792,0.1684 -0.80274,-0.77343 0.90213,-0.94915 0.44695,-1.37973 -2.66211,-2.52149 -1.25051,-0.45923 -2.44392,-0.95194 -2.65234,-1.0957 -0.56239,-0.38793 -6.12779,-1.78537 -7.10938,-1.78516 -0.9174,2e-4 -4.81256,1.31009 -5.33789,1.79492 -0.17691,0.16329 0.1947,0.40506 0.82618,0.53711 0.63145,0.13205 1.37351,0.50036 1.64843,0.81836 0.27493,0.318 1.16371,1.03737 1.97657,1.59961 1.16721,0.80738 1.88749,1.02344 3.42578,1.02344 4.52062,0 9.17665,2.22565 14.63281,6.99805 4.36053,3.81407 8.34358,6.32026 10.08398,6.34179 1.17631,0.0146 4.29493,1.35019 4.29493,1.83985 0,0.28565 -0.87644,0.37184 -2.8418,0.27734 -1.56314,-0.0752 -2.8406,-0.0523 -2.83985,0.0508 7.8e-4,0.10309 0.31897,0.68399 0.70899,1.29297 0.39003,0.60899 0.83825,1.50387 0.99414,1.98633 0.15589,0.48246 1.02917,1.87924 1.94141,3.10547 1.81498,2.43973 2.00137,3.00195 0.99218,3.00195 -1.03203,0 -2.51648,-1.51337 -5.41406,-5.52148 -1.46299,-2.0237 -3.08196,-4.24685 -3.59766,-4.94141 -0.5157,-0.69456 -2.40472,-2.59825 -4.19921,-4.23047 -2.06205,-1.87557 -3.18623,-3.15798 -3.05469,-3.48437 0.2645,-0.65631 -3.26414,-3.20799 -6.37305,-4.60938 -2.6308,-1.18587 -6.2624,-1.42844 -7.2539,-0.48437 -0.64457,0.6137 -1.6504,0.72295 -1.6504,0.17969 0,-0.19845 0.17049,-0.35938 0.37891,-0.35938 0.20842,0 0.37891,-0.23981 0.37891,-0.53125 0,-0.31707 -0.22456,-0.4475 -0.55664,-0.32617 -0.30523,0.11152 -1.08508,-0.15744 -1.73438,-0.59766 -0.64931,-0.44023 -1.63686,-0.79756 -2.19336,-0.79297 -0.66331,0.005 -1.43534,-0.4133 -2.24219,-1.21679 -0.6769,-0.67409 -1.33373,-1.22657 -1.45898,-1.22657 -0.12526,0 -0.69833,-0.44646 -1.27344,-0.99218 -0.5751,-0.54573 -1.86556,-1.64177 -2.86914,-2.43555 -1.00357,-0.79378 -2.61089,-2.09294 -3.57226,-2.88672 -0.96139,-0.79378 -2.94759,-2.06399 -4.41407,-2.82226 -3.68658,-1.90629 -7.98651,-5.32795 -10.73242,-8.54297 -2.44614,-3.33913 -4.17548,-4.70917 -4.98301,-5.15718 -1.25229,-0.23327 -1.21503,-0.18963 -2.78652,0.26069 -1.5663,0.7813 -5.19599,0.70248 -4.37109,-0.90039 2.99651,-7.03251 -3.09553,-5.70982 -2.85549,-6.92573 0.21765,-0.50526 0.13542,-0.58516 -0.40235,-0.38867 -0.52457,0.19166 -0.62038,0.11284 -0.43164,-0.35547 0.17312,-0.42955 0.0776,-0.61787 -0.12304,-0.58789 z m 46.22265,39.72266 c 0.22599,-0.0505 0.54437,0.25942 0.90821,0.9414 0.812,1.52203 0.5278,2.49881 -1.11524,3.83789 -0.82695,0.67397 -1.98581,2.06829 -2.57422,3.09766 -6.4017,12.00773 -5.26595,20.40439 -5.65039,22.05664 -0.12295,0.4761 -0.33403,1.75816 -0.4707,2.84961 -0.13668,1.09144 -0.44511,2.43084 -0.68359,2.97656 -0.83079,1.9011 -1.03281,0.96047 -0.81446,-3.78906 0.27668,-6.01833 0.73071,-9.34244 1.90821,-13.97266 0.51233,-2.01465 0.93164,-4.62666 0.93164,-5.80469 v -2.14062 h -2.65235 c -1.45892,0 -2.65234,-0.12691 -2.65234,-0.28125 0,-0.71242 1.71206,-1.53469 3.97656,-1.91016 2.15198,-0.3391 3.90649,-1.67626 5.5625,-2.86328 0.69339,-0.59693 1.64434,-1.40282 2.11328,-1.79101 0.58367,-0.48317 0.85352,-1.10912 0.85352,-1.98243 0,-0.76334 0.13339,-1.17409 0.35937,-1.2246 z m 16.73828,25.33398 c 0.51683,0.0725 1.49247,0.45769 2.83399,1.14062 2.18635,1.11302 3.87375,2.44033 7.45703,5.86719 3.36867,3.22161 5.19893,4.68336 6.71484,5.36328 1.1463,0.51415 2.3647,1.16915 2.70703,1.45508 0.34236,0.28594 1.10703,0.64413 1.69922,0.79492 0.81158,0.20666 1.09541,0.5127 1.1543,1.24219 0.0962,1.19163 -0.70661,1.27599 -2.33984,0.24609 -0.62526,-0.39427 -1.4341,-0.71917 -1.79883,-0.7207 -0.39148,-10e-4 -0.66406,-0.27428 -0.66406,-0.66797 0,-0.44773 -0.51925,-0.86226 -1.58203,-1.25976 -0.87067,-0.32564 -1.6546,-0.52285 -1.74219,-0.43946 -0.16943,0.16133 0.95929,3.15221 1.98242,5.25196 l 0.61523,1.26367 -0.22851,-1.71485 c -0.22438,-1.68433 0.23463,-2.35992 0.74414,-1.0957 0.21002,0.52112 0.89059,6.15481 1.09765,9.08789 0.0892,1.26269 -0.57156,1.27565 -1.71484,0.0352 -0.88482,-0.96011 -0.95963,-1.23498 -0.63867,-2.3418 0.39256,-1.35371 -0.16036,-4.15234 -0.82031,-4.15234 -0.20039,0 -0.36729,-0.28358 -0.3711,-0.63086 -0.0136,-1.24257 -2.63641,-6.68038 -3.96875,-8.22852 -0.74669,-0.86763 -2.20401,-2.02893 -3.23828,-2.58203 -1.38418,-0.74022 -1.88057,-1.2208 -1.88086,-1.81836 -2.1e-4,-0.4465 0.21214,-0.81594 0.47266,-0.82226 0.70001,-0.017 -0.77283,-1.02932 -2.88867,-1.98438 -1.01609,-0.45865 -2.07821,-0.74922 -2.35938,-0.64648 -0.28117,0.10273 -0.81146,-0.10056 -1.17969,-0.45117 -0.49708,-0.4733 -0.54451,-0.67647 -0.18359,-0.79102 0.3773,-0.11974 0.38543,-0.27033 0.0371,-0.66992 -0.49132,-0.56367 -0.43289,-0.80297 0.084,-0.73047 z m -12.34765,1.05078 c 0.30756,-0.006 0.14583,0.96558 -0.63867,4.25 -0.55627,2.32886 -0.82764,4.72744 -0.85352,7.56055 l -0.0371,4.14843 3.11524,5.95508 c 1.71392,3.27434 3.45702,6.79818 3.87304,7.83203 1.43591,3.5684 0.0899,2.25571 -2.20508,-2.15039 -1.98539,-3.81168 -4.37933,-7.04379 -5.57226,-7.52539 -0.19157,-0.0773 -0.73223,-0.66191 -1.20117,-1.29883 -0.96662,-1.31283 -1.13728,-2.45207 -0.32227,-2.15429 0.6733,0.24601 0.97192,-0.7757 0.98242,-3.36328 0.014,-3.4679 1.90897,-12.73029 2.69922,-13.19532 0.0626,-0.0369 0.11622,-0.0577 0.16016,-0.0586 z m -27.80664,15.10156 c -0.089,0.003 -0.21911,0.0686 -0.36524,0.16407 0.0358,-0.003 0.0718,-0.005 0.10742,-0.008 0.0186,-0.002 0.0366,-0.005 0.0566,-0.006 0.13917,-0.007 0.24458,0.0246 0.32226,0.0879 3e-4,-0.0245 6.9e-4,-0.0488 0.002,-0.0723 0.006,-0.12029 -0.0415,-0.16871 -0.12304,-0.16602 z m 1.62695,1.31446 c 0.0104,-0.14781 -0.0335,0.4548 -0.082,0.80078 0.0104,-0.0222 0.0198,-0.0402 0.0312,-0.0645 0.0306,-0.45522 0.0462,-0.67029 0.0508,-0.73632 z m -1.35351,0.0723 c -0.0669,0.51685 -0.194,1.10361 -0.21876,1.57227 0.033,0.004 0.0664,0.007 0.0996,0.0117 l 0.0645,-0.3086 c 0.0505,-0.23902 0.11094,-0.42032 0.16601,-0.64843 -0.0316,-0.20367 -0.0704,-0.41353 -0.11132,-0.62696 z m -0.74805,0.49414 c -0.0367,0.21195 -0.0642,0.41661 -0.0723,0.59961 0.0927,0.0767 0.18555,0.15297 0.2793,0.22852 -0.0596,-0.26398 -0.13426,-0.54624 -0.20703,-0.82813 z m 3.05078,1.38282 c 0.01,0.0445 0.0121,0.096 0.0352,0.13085 0.0189,0.0287 -5.1e-4,-0.0694 -0.0156,-0.0996 -0.004,-0.008 -0.0118,-0.0202 -0.0195,-0.0312 z m 1.83594,4.59179 c -0.0338,0.0809 -0.0723,0.16019 -0.10938,0.24024 0.005,1.9e-4 0.0122,0.002 0.0176,0.002 0.0303,-0.0809 0.0615,-0.16152 0.0918,-0.24219 z"
         sodipodi:nodetypes="cssssssssssscccssssssssssssscssccccccccccssssssssssssssssssssssssscssssssssssssscccccccccscccccccscsscscccccccssssssssssssscccsssssssssssssssssssssssssssssssssssssssssssssssscccsssscsssssscccsssssssssssscccssssssssssccccssssssssssssssscccssssssssssssssssssssssssssssssssssssssssssscsssssscccccssccsssccssssscssccssssssssssscsssccsssssssssssssssssssscccssssssssscccsccccsccsssccccsssccsscssscsccss"
         inkscape:connector-curvature="0" />
      <path
         id="path34461"
         style="display:inline;fill:#ffffff;fill-opacity:1;stroke:#000000;stroke-width:0.65570903;stroke-opacity:0"
         d="m 2.3515829,-49.78779 c -0.00272,2.65e-4 -0.00159,0.0043 0.00259,0.01138 -7.726e-4,-0.0037 -0.00182,-0.0077 -0.00259,-0.01138 z m 0.2940389,1.480013 c 3.043e-4,0.0016 7.461e-4,0.0041 0.00103,0.0057 0.00491,0.0011 0.00969,0.0019 0.00723,0 -0.00272,-0.0019 -0.00554,-0.0038 -0.00827,-0.0057 z m 0.025838,0.135393 c 0.048027,0.240411 0.1229279,0.540149 0.1596802,0.630967 0.027435,0.06779 0.034892,0.07362 0.044442,0.03462 0.00634,-0.02588 0.012979,0.01199 0.014469,0.08423 0.00197,0.09581 0.020706,0.164939 0.069247,0.254765 0.036599,0.06773 0.079349,0.163894 0.095085,0.213942 0.015736,0.05005 0.068118,0.153877 0.116272,0.230476 0.1688724,0.268618 0.3471617,0.600287 0.3622517,0.674378 0.012456,0.06115 0.045495,0.09327 0.1829346,0.175699 0.1710486,0.10259 0.1831038,0.140999 0.016536,0.05271 -0.1168502,-0.06194 -0.1246443,-0.06128 -0.1069702,0.01188 0.013125,0.0543 0.0077,0.06046 -0.053743,0.06046 -0.1875115,-3e-6 0.00728,0.129122 0.1958175,0.298175 0.2283286,0.204724 0.09465,0.223073 0.149898,0.345196 0.038571,0.08533 0.058356,0.107776 0.078031,0.08733 0.014531,-0.01511 0.034696,-0.02791 0.044959,-0.02791 0.034415,3e-6 0.019402,0.05289 -0.026872,0.09353 -0.041083,0.03608 -0.043347,0.05077 -0.01912,0.142111 0.021078,0.07944 0.020836,0.114186 -0.00207,0.158646 -0.01615,0.03136 -0.026673,0.06751 -0.023254,0.0801 0.018885,0.06942 -0.2610371,0.488929 -0.3400309,0.50953 -0.027297,0.0071 -0.1647514,0.01497 -0.3054077,0.01757 -0.057269,0.0011 -0.1057096,5.29e-4 -0.1519288,-0.0016 -0.00293,0.0011 -0.00576,0.0024 -0.00878,0.0031 -5.636e-4,-0.0021 -6.8e-4,-0.0021 -0.00103,-0.0036 -0.00208,-1e-4 -0.00413,-5.29e-4 -0.0062,-5.29e-4 -0.00429,0.0059 -0.012694,0.01638 -0.032556,0.02739 -0.066216,0.03662 -0.1324775,0.04562 -0.2072225,0.04393 -0.034154,1.4e-5 -0.068174,1.54e-4 -0.1023193,-5.29e-4 -0.010517,-5.29e-4 -0.028314,0.0011 -0.045475,0.0021 -0.00872,0.0089 -0.018101,0.01709 -0.028422,0.02429 -0.034962,0.02431 -0.085055,0.0089 -0.1276408,0.0072 -0.1685426,-0.0067 -0.3282393,-0.02755 -0.4904093,-0.07596 -0.01544,-0.0046 -0.029175,-0.0085 -0.042892,-0.01241 -0.013668,0.0013 -0.018246,0.0019 -0.062528,-0.0016 -0.010641,-7.94e-4 -0.020948,-0.0033 -0.031523,-0.0047 -0.010462,-0.0013 -0.021039,-0.0028 -0.031523,-0.0041 l -0.074931,0.05013 0.018087,0.218073 c 0.024175,0.285157 0.037883,0.32762 0.1214394,0.375689 0.064384,0.03704 0.07028,0.05074 0.07028,0.171564 v 0.13126 H 1.9831293 c -0.099332,3e-6 -0.1057014,0.004 -0.1131713,0.07286 -0.00959,0.08826 -0.042463,0.133323 -0.097152,0.133323 -0.022519,0 -0.05348,0.01593 -0.069246,0.03566 -0.065351,0.08181 0.1791827,0.370322 0.4242634,0.500227 0.049351,0.02617 0.1470081,0.101544 0.217041,0.167433 0.070033,0.0659 0.1562506,0.126159 0.1917196,0.134358 0.035469,0.0082 0.080775,0.01982 0.1007691,0.02532 0.019994,0.0055 0.083678,0.05728 0.1410766,0.115239 0.088205,0.08908 0.1264729,0.109527 0.2480469,0.131776 0.079114,0.01447 0.1733405,0.0424 0.2092895,0.06201 0.035949,0.01961 0.06666,0.03372 0.06873,0.03152 0.00208,-0.0021 -0.00155,-0.03343 -0.00827,-0.06976 -0.0097,-0.05244 -0.028946,-0.06967 -0.093017,-0.08217 -0.0574,-0.01117 -0.08683,-0.03326 -0.1028361,-0.077 -0.027858,-0.07613 -0.012084,-0.09203 0.1131714,-0.111622 0.094284,-0.01474 0.099219,-0.01244 0.099219,0.04548 0,0.06353 0.021377,0.07726 0.059428,0.03772 0.012303,-0.01278 0.090867,-0.04104 0.1741496,-0.06253 0.083283,-0.02148 0.1782046,-0.05872 0.2113566,-0.0832 0.033152,-0.02447 0.098542,-0.05585 0.1452108,-0.06924 0.097283,-0.02791 0.1650442,-0.07434 0.4221964,-0.290423 0.1014314,-0.08523 0.2289329,-0.174791 0.2831869,-0.198953 0.054254,-0.02416 0.127132,-0.08288 0.162264,-0.130741 0.035132,-0.04786 0.102284,-0.109554 0.1488281,-0.136943 0.046545,-0.0274 0.1366155,-0.122682 0.2005045,-0.211873 0.06389,-0.08919 0.169668,-0.223256 0.234611,-0.297657 0.141757,-0.162414 0.1741496,-0.263321 0.1741496,-0.538469 0,-0.380045 -0.1006923,-0.744834 -0.3498494,-1.265039 -0.2697526,-0.563205 -0.5584142,-0.940126 -1.0030396,-1.309997 -0.3065177,-0.254987 -0.4249957,-0.38222 -0.6940145,-0.744141 -0.042061,-0.05659 -0.09855,-0.127799 -0.1576131,-0.200504 -0.071645,-0.02692 -0.1299608,-0.08029 -0.1803507,-0.136427 -0.0045,-0.0048 -0.00943,-0.0092 -0.013952,-0.01394 0.00232,0.007 -0.00616,-0.0051 -0.047026,-0.05271 3.03e-5,7.94e-4 1.818e-4,0.0013 0,0.0021 -0.00285,0.01252 -0.02133,-0.01389 -0.031523,-0.0217 -0.017639,-0.01352 -0.034674,-0.02809 -0.051676,-0.04237 -0.00158,-0.0013 -0.00545,-0.0055 -0.00827,-0.0093 -0.025966,-0.01617 -0.049795,-0.03506 -0.06873,-0.05891 -0.035649,-0.0057 -0.052178,-0.01773 -0.024805,-0.03979 -6.059e-4,-0.0013 -9.71e-4,-0.0028 -0.00155,-0.0041 -4.762e-4,-0.0011 -5.926e-4,-0.0024 -0.00103,-0.0036 -0.011121,-0.0095 -0.023325,-0.01818 -0.032556,-0.02946 -0.015296,-0.01871 -0.027591,-0.0397 -0.040824,-0.05994 -0.00114,-0.0021 -0.00312,-0.0074 -0.00878,-0.01704 -0.00587,-0.0092 -0.0152,-0.01619 -0.01912,-0.02635 -0.00118,-0.003 0.00609,0.0013 0.0093,0.0021 -0.048535,-0.03837 -0.068047,-0.05898 -0.1018025,-0.118857 -0.00616,-0.0109 -0.010602,-0.02326 -0.012402,-0.03566 -5.45e-4,-0.0038 -6.059e-4,-0.0076 -0.00103,-0.01138 -0.00325,-0.0058 -0.00676,-0.0096 -0.011369,-0.0088 -0.00166,-0.0016 -0.0035,-0.003 -0.00517,-0.0047 z m 0.2015381,0.196887 c 4.98e-5,0.0038 0.0017,0.01884 0.00207,0.02479 0.00137,0.0031 0.00276,0.0062 0.00413,0.0093 -0.00147,-0.01119 -0.00318,-0.02215 -0.00568,-0.03307 -4.497e-4,-0.0019 -5.344e-4,-0.0024 -5.159e-4,-0.0011 z m 0.1519287,0.224792 c 0.00894,0.01484 0.015653,0.03124 0.026872,0.04444 0.00509,0.006 0.016191,0.0089 0.023771,0.01291 -0.013749,-0.0159 -0.029669,-0.03391 -0.050643,-0.05736 z m 0.10542,0.03928 c -0.017218,0.02172 -0.010249,0.05122 -0.00413,0.06821 0.012691,0.0066 0.023608,0.02156 0.037207,0.0186 0.00865,-0.0019 0.023563,-0.0048 0.03514,-0.0072 -0.02424,-0.02853 -0.045811,-0.05405 -0.068213,-0.07958 z m -0.5581055,3.664892 c -4.419e-4,2.43e-4 -0.00668,0.0019 -0.00723,0.0021 0.00242,0.02953 0.027408,0.04866 0.056844,0.05788 -0.023639,-0.0095 -0.039762,-0.02722 -0.049609,-0.05994 z m 2.806547,0.164849 c 0.00566,0 0.00982,0.01098 0.00982,0.02429 0,0.01331 -0.010701,0.02429 -0.024288,0.02429 -0.013587,0 -0.018264,-0.01098 -0.010335,-0.02429 0.00793,-0.01331 0.019145,-0.02429 0.024805,-0.02429 z m -1.5621785,1.227314 c 0.02179,-2.25e-4 0.032556,0.0077 0.032556,0.02429 0,0.01815 -0.020572,0.03307 -0.045475,0.03307 -0.068919,0 -0.078255,-0.04169 -0.012402,-0.05478 0.00971,-0.0019 0.018058,-0.0024 0.025321,-0.0026 z"
         inkscape:label="k"
         sodipodi:nodetypes="cccsccssssssssssssssssssssssssccccscccscscsscccsscsssssssssssssssssssssssssssssssccccssscccscsccscssccsssccssssscssscscsssccssssssssssssss"
         inkscape:connector-curvature="0" />
    </g>
  </g>
</svg>
